<svg width="16" height="14" viewBox="0 0 16 14" fill="none" xmlns="http://www.w3.org/2000/svg">
<path fill-rule="evenodd" clip-rule="evenodd" d="M11.0203 0.0181648C13.5601 -0.212734 15.75 1.78711 15.75 4.33747V4.39998C15.75 5.5654 15.2871 6.68308 14.463 7.50715L8.81009 13.1601C8.36271 13.6074 7.63736 13.6074 7.18998 13.1601L1.53704 7.50715C0.712962 6.68308 0.25 5.5654 0.25 4.39998V4.33748C0.25 1.78712 2.4399 -0.212733 4.97979 0.0181663C6.17121 0.126477 7.26352 0.721881 8.00003 1.66114C8.73653 0.721881 9.82884 0.126476 11.0203 0.0181648ZM14.25 4.33747C14.25 2.66915 12.8175 1.36096 11.1561 1.512C10.3564 1.5847 9.625 1.99284 9.14323 2.6352L8.67378 3.26112C8.33691 3.71029 7.66317 3.71029 7.32629 3.26113L6.85681 2.63518C6.37504 1.99283 5.64364 1.5847 4.84399 1.51201C3.18252 1.36096 1.75 2.66916 1.75 4.33748V4.39998C1.75 5.16757 2.05493 5.90372 2.5977 6.44649L8.00003 11.8488L13.4023 6.44649C13.9451 5.90372 14.25 5.16757 14.25 4.39998V4.33747Z" fill="#86878B"/>
</svg>
