<svg width="32" height="32" viewBox="0 0 32 32" fill="none" xmlns="http://www.w3.org/2000/svg">
<path d="M13.7428 9.62648C14.5989 7.49224 15.027 6.42511 15.7224 6.27721C15.9053 6.23832 16.0943 6.23832 16.2771 6.27721C16.9726 6.42511 17.4006 7.49224 18.2567 9.62648C18.7436 10.8402 18.987 11.447 19.4425 11.8598C19.5702 11.9756 19.7089 12.0787 19.8566 12.1677C20.383 12.485 21.0402 12.5438 22.3546 12.6616C24.5796 12.8608 25.6921 12.9605 26.0319 13.5948C26.1022 13.7262 26.1501 13.8684 26.1734 14.0156C26.286 14.7263 25.4682 15.4704 23.8324 16.9585L23.3782 17.3718C22.6135 18.0675 22.2311 18.4154 22.0099 18.8495C21.8773 19.11 21.7883 19.3904 21.7466 19.6797C21.6772 20.162 21.7891 20.6666 22.0131 21.6759L22.0931 22.0365C22.4947 23.8466 22.6955 24.7516 22.4448 25.1965C22.2197 25.596 21.8049 25.8519 21.3468 25.8737C20.8368 25.8981 20.1181 25.3125 18.6808 24.1413C17.7339 23.3697 17.2604 22.9839 16.7348 22.8332C16.2545 22.6954 15.7451 22.6954 15.2648 22.8332C14.7391 22.9839 14.2657 23.3697 13.3187 24.1413C11.8814 25.3125 11.1628 25.8981 10.6527 25.8737C10.1946 25.8519 9.77989 25.596 9.55474 25.1965C9.30408 24.7516 9.50487 23.8466 9.90647 22.0365L9.98648 21.6759C10.2104 20.6666 10.3224 20.162 10.2529 19.6797C10.2112 19.3904 10.1223 19.11 9.9896 18.8495C9.76843 18.4154 9.38607 18.0675 8.62134 17.3718L8.16711 16.9585C6.5314 15.4704 5.71354 14.7263 5.82617 14.0156C5.8495 13.8684 5.89733 13.7262 5.9677 13.5948C6.30743 12.9605 7.41994 12.8608 9.64495 12.6616C10.9593 12.5438 11.6165 12.485 12.143 12.1677C12.2906 12.0787 12.4293 11.9756 12.5571 11.8598C13.0126 11.447 13.256 10.8402 13.7428 9.62648Z" fill="white" stroke="white" stroke-width="2"/>
</svg>
