<svg width="34" height="15" viewBox="0 0 34 15" fill="none" xmlns="http://www.w3.org/2000/svg">
<path fill-rule="evenodd" clip-rule="evenodd" d="M6.75879 2.43384C6.38056 2.8881 5.77538 3.2464 5.17021 3.19521C5.09457 2.581 5.39085 1.92839 5.73756 1.52531C6.11579 1.05825 6.7777 0.725544 7.31353 0.699951C7.37657 1.33976 7.13072 1.96678 6.75879 2.43384ZM7.30723 3.31678C6.77409 3.28563 6.28761 3.47951 5.89468 3.63611C5.64181 3.73689 5.42768 3.82223 5.26478 3.82223C5.08196 3.82223 4.85899 3.73233 4.60865 3.63139C4.28061 3.49912 3.90558 3.34791 3.5123 3.35517C2.61084 3.36796 1.77243 3.88621 1.31224 4.71156C0.36666 6.36228 1.06639 8.80635 1.98045 10.15C2.42803 10.8154 2.96386 11.5447 3.66989 11.5191C3.98051 11.5073 4.20394 11.411 4.43518 11.3114C4.70139 11.1968 4.97795 11.0777 5.40976 11.0777C5.82661 11.0777 6.09107 11.1937 6.34493 11.305C6.58632 11.4109 6.81812 11.5126 7.16224 11.5064C7.89349 11.4936 8.35368 10.8409 8.80125 10.1755C9.28425 9.4614 9.4965 8.76443 9.52872 8.65864L9.5325 8.6464C9.53173 8.64562 9.52577 8.64285 9.51525 8.63796L9.51524 8.63795L9.51523 8.63795C9.35377 8.56293 8.11966 7.98951 8.10783 6.45185C8.09594 5.16121 9.08669 4.50729 9.24265 4.40435L9.24267 4.40434L9.24269 4.40432C9.25216 4.39807 9.25855 4.39386 9.26143 4.39166C8.63105 3.44474 7.64764 3.34237 7.30723 3.31678ZM12.3692 11.436V1.46133H16.057C17.9608 1.46133 19.2909 2.79213 19.2909 4.73716C19.2909 6.68218 17.9356 8.02578 16.0066 8.02578H13.8948V11.436H12.3692ZM13.8948 2.76654H15.6536C16.9774 2.76654 17.7338 3.48313 17.7338 4.74355C17.7338 6.00398 16.9774 6.72696 15.6473 6.72696H13.8948V2.76654ZM24.3277 10.2395C23.9243 11.0201 23.0354 11.5127 22.0772 11.5127C20.6588 11.5127 19.6691 10.6554 19.6691 9.36298C19.6691 8.08336 20.6273 7.34758 22.3987 7.23881L24.3025 7.12365V6.57341C24.3025 5.76085 23.7793 5.31938 22.8463 5.31938C22.0772 5.31938 21.5162 5.72246 21.4027 6.33668H20.0285C20.0726 5.04426 21.2703 4.10374 22.8904 4.10374C24.6366 4.10374 25.7713 5.03147 25.7713 6.47104V11.436H24.3592V10.2395H24.3277ZM22.487 10.3291C21.6738 10.3291 21.1569 9.93242 21.1569 9.32459C21.1569 8.69758 21.6549 8.33289 22.6067 8.2753L24.3025 8.16654V8.72957C24.3025 9.66369 23.5208 10.3291 22.487 10.3291ZM30.4551 11.8263C29.8436 13.5729 29.1439 14.1488 27.6562 14.1488C27.5427 14.1488 27.1644 14.136 27.0762 14.1104V12.9139C27.1708 12.9267 27.404 12.9395 27.5238 12.9395C28.1983 12.9395 28.5765 12.6516 28.8098 11.903L28.9484 11.4616L26.3639 4.19971H27.9587L29.7553 10.0924H29.7869L31.5835 4.19971H33.1342L30.4551 11.8263Z" fill="black"/>
</svg>
