<svg width="25" height="24" viewBox="0 0 25 24" fill="none" xmlns="http://www.w3.org/2000/svg">
<path fill-rule="evenodd" clip-rule="evenodd" d="M12.625 3C7.65444 3 3.625 7.02944 3.625 12C3.625 16.9706 7.65444 21 12.625 21C17.5956 21 21.625 16.9706 21.625 12C21.625 7.02944 17.5956 3 12.625 3ZM1.625 12C1.625 5.92487 6.54987 1 12.625 1C18.7001 1 23.625 5.92487 23.625 12C23.625 18.0751 18.7001 23 12.625 23C6.54987 23 1.625 18.0751 1.625 12Z" fill="#B9C0C9"/>
<path fill-rule="evenodd" clip-rule="evenodd" d="M12.625 5C13.1773 5 13.625 5.44772 13.625 6V11.382L17.0722 13.1056C17.5662 13.3526 17.7664 13.9532 17.5194 14.4472C17.2724 14.9412 16.6718 15.1414 16.1778 14.8944L12.1778 12.8944C11.839 12.725 11.625 12.3788 11.625 12V6C11.625 5.44772 12.0727 5 12.625 5Z" fill="#B9C0C9"/>
</svg>
