<svg width="10" height="10" viewBox="0 0 10 10" fill="none" xmlns="http://www.w3.org/2000/svg">
<path d="M1.19336 4.375C0.878906 4.375 0.625 4.12109 0.625 3.80664C0.625 3.76953 0.628906 3.73438 0.636719 3.69727C0.740234 3.28711 1.53906 0.625 5 0.625C8.46094 0.625 9.25977 3.28711 9.36328 3.69727C9.37305 3.73438 9.375 3.76953 9.375 3.80664C9.375 4.12109 9.12109 4.375 8.80664 4.375H1.19336ZM2.8125 2.5C2.8125 2.41712 2.77958 2.33763 2.72097 2.27903C2.66237 2.22042 2.58288 2.1875 2.5 2.1875C2.41712 2.1875 2.33763 2.22042 2.27903 2.27903C2.22042 2.33763 2.1875 2.41712 2.1875 2.5C2.1875 2.58288 2.22042 2.66237 2.27903 2.72097C2.33763 2.77958 2.41712 2.8125 2.5 2.8125C2.58288 2.8125 2.66237 2.77958 2.72097 2.72097C2.77958 2.66237 2.8125 2.58288 2.8125 2.5ZM7.5 2.8125C7.58288 2.8125 7.66237 2.77958 7.72097 2.72097C7.77958 2.66237 7.8125 2.58288 7.8125 2.5C7.8125 2.41712 7.77958 2.33763 7.72097 2.27903C7.66237 2.22042 7.58288 2.1875 7.5 2.1875C7.41712 2.1875 7.33763 2.22042 7.27903 2.27903C7.22042 2.33763 7.1875 2.41712 7.1875 2.5C7.1875 2.58288 7.22042 2.66237 7.27903 2.72097C7.33763 2.77958 7.41712 2.8125 7.5 2.8125ZM5.3125 1.875C5.3125 1.79212 5.27958 1.71263 5.22097 1.65403C5.16237 1.59542 5.08288 1.5625 5 1.5625C4.91712 1.5625 4.83763 1.59542 4.77903 1.65403C4.72042 1.71263 4.6875 1.79212 4.6875 1.875C4.6875 1.95788 4.72042 2.03737 4.77903 2.09597C4.83763 2.15458 4.91712 2.1875 5 2.1875C5.08288 2.1875 5.16237 2.15458 5.22097 2.09597C5.27958 2.03737 5.3125 1.95788 5.3125 1.875ZM0.3125 5.9375C0.3125 5.41992 0.732422 5 1.25 5H8.75C9.26758 5 9.6875 5.41992 9.6875 5.9375C9.6875 6.45508 9.26758 6.875 8.75 6.875H1.25C0.732422 6.875 0.3125 6.45508 0.3125 5.9375ZM0.625 7.8125C0.625 7.64062 0.765625 7.5 0.9375 7.5H9.0625C9.23438 7.5 9.375 7.64062 9.375 7.8125V8.125C9.375 8.81445 8.81445 9.375 8.125 9.375H1.875C1.18555 9.375 0.625 8.81445 0.625 8.125V7.8125Z" fill="#581D8A"/>
</svg>
