<svg width="15" height="13" viewBox="0 0 15 13" fill="none" xmlns="http://www.w3.org/2000/svg">
<path d="M1.83366 0.833313C1.45794 0.833313 1.0976 0.982568 0.831924 1.24824C0.566248 1.51392 0.416992 1.87426 0.416992 2.24998V5.08331C0.792716 5.08331 1.15305 5.23257 1.41873 5.49825C1.6844 5.76392 1.83366 6.12426 1.83366 6.49998C1.83366 6.8757 1.6844 7.23604 1.41873 7.50171C1.15305 7.76739 0.792716 7.91665 0.416992 7.91665V10.75C0.416992 11.1257 0.566248 11.486 0.831924 11.7517C1.0976 12.0174 1.45794 12.1666 1.83366 12.1666H13.167C13.5427 12.1666 13.903 12.0174 14.1687 11.7517C14.4344 11.486 14.5837 11.1257 14.5837 10.75V7.91665C14.2079 7.91665 13.8476 7.76739 13.5819 7.50171C13.3162 7.23604 13.167 6.8757 13.167 6.49998C13.167 6.12426 13.3162 5.76392 13.5819 5.49825C13.8476 5.23257 14.2079 5.08331 14.5837 5.08331V2.24998C14.5837 1.87426 14.4344 1.51392 14.1687 1.24824C13.903 0.982568 13.5427 0.833313 13.167 0.833313H1.83366ZM9.97949 2.95831L11.042 4.02081L5.02116 10.0416L3.95866 8.97915L9.97949 2.95831ZM5.24074 2.98665C5.93491 2.98665 6.49449 3.54623 6.49449 4.2404C6.49449 4.57291 6.3624 4.89181 6.12728 5.12693C5.89215 5.36205 5.57326 5.49415 5.24074 5.49415C4.54658 5.49415 3.98699 4.93456 3.98699 4.2404C3.98699 3.90788 4.11908 3.58898 4.35421 3.35386C4.58933 3.11874 4.90823 2.98665 5.24074 2.98665ZM9.75991 7.50581C10.4541 7.50581 11.0137 8.0654 11.0137 8.75956C11.0137 9.09208 10.8816 9.41097 10.6464 9.6461C10.4113 9.88122 10.0924 10.0133 9.75991 10.0133C9.06574 10.0133 8.50616 9.45373 8.50616 8.75956C8.50616 8.42705 8.63825 8.10815 8.87337 7.87303C9.1085 7.6379 9.42739 7.50581 9.75991 7.50581Z" fill="#581D8A"/>
</svg>
