<svg width="28" height="29" viewBox="0 0 28 29" fill="none" xmlns="http://www.w3.org/2000/svg">
<path d="M4.39997 12.0001C4.13331 11.889 3.88353 11.7725 3.65064 11.6507C3.41775 11.529 3.17864 11.3787 2.93331 11.2001L1.96664 11.5001C1.67775 11.589 1.3942 11.5779 1.11597 11.4667C0.837753 11.3556 0.621308 11.1779 0.466642 10.9334L0.199975 10.4667C0.0444196 10.2001 -0.011136 9.91119 0.0333085 9.60008C0.0777529 9.28897 0.222197 9.03341 0.466642 8.83342L1.19998 8.20008C1.15553 7.91119 1.13331 7.6223 1.13331 7.33342C1.13331 7.04453 1.15553 6.75564 1.19998 6.46675L0.466642 5.83342C0.222197 5.63341 0.0777529 5.38364 0.0333085 5.08408C-0.011136 4.78453 0.0444196 4.50097 0.199975 4.23342L0.499975 3.73342C0.655531 3.48897 0.866642 3.31119 1.13331 3.20008C1.39997 3.08897 1.67775 3.07786 1.96664 3.16675L2.93331 3.46675C3.17775 3.28897 3.41686 3.13919 3.65064 3.01741C3.88442 2.89564 4.1342 2.77875 4.39997 2.66675L4.59997 1.70008C4.66664 1.38897 4.81686 1.13919 5.05064 0.950748C5.28442 0.762304 5.55642 0.667637 5.86664 0.666748H6.39998C6.71109 0.666748 6.98353 0.766748 7.21731 0.966748C7.45109 1.16675 7.60086 1.4223 7.66664 1.73341L7.86664 2.66675C8.13331 2.77786 8.38353 2.89475 8.61731 3.01741C8.85109 3.14008 9.08975 3.28986 9.33331 3.46675L10.3 3.16675C10.5889 3.07786 10.8724 3.08897 11.1506 3.20008C11.4289 3.31119 11.6453 3.48897 11.8 3.73342L12.0666 4.20008C12.2222 4.46675 12.2778 4.75564 12.2333 5.06675C12.1889 5.37786 12.0444 5.63341 11.8 5.83342L11.0666 6.46675C11.1111 6.75564 11.1333 7.04453 11.1333 7.33342C11.1333 7.6223 11.1111 7.91119 11.0666 8.20008L11.8 8.83342C12.0444 9.03341 12.1889 9.28364 12.2333 9.58408C12.2778 9.88453 12.2222 10.1676 12.0666 10.4334L11.7666 10.9334C11.6111 11.1779 11.4 11.3556 11.1333 11.4667C10.8666 11.5779 10.5889 11.589 10.3 11.5001L9.33331 11.2001C9.08886 11.3779 8.8502 11.5281 8.61731 11.6507C8.38442 11.7734 8.1342 11.8899 7.86664 12.0001L7.66664 12.9667C7.59997 13.2779 7.4502 13.5281 7.21731 13.7174C6.98442 13.9067 6.71198 14.001 6.39998 14.0001H5.86664C5.55553 14.0001 5.28353 13.9001 5.05064 13.7001C4.81775 13.5001 4.66753 13.2445 4.59997 12.9334L4.39997 12.0001ZM6.13331 10.0001C6.86664 10.0001 7.49464 9.73919 8.01731 9.21741C8.53997 8.69564 8.80086 8.06764 8.79998 7.33342C8.79998 6.60008 8.53909 5.97253 8.01731 5.45075C7.49553 4.92897 6.86753 4.66764 6.13331 4.66675C5.39997 4.66675 4.77242 4.92808 4.25064 5.45075C3.72886 5.97341 3.46753 6.60097 3.46664 7.33342C3.46664 8.06675 3.72797 8.69475 4.25064 9.21741C4.77331 9.74008 5.40086 10.001 6.13331 10.0001ZM16.1333 25.8667C15.7555 25.7334 15.4058 25.5721 15.084 25.3827C14.7622 25.1934 14.4453 24.977 14.1333 24.7334L12.8666 25.1334C12.4666 25.2667 12.0666 25.2614 11.6666 25.1174C11.2666 24.9734 10.9555 24.7121 10.7333 24.3334L10.3666 23.7001C10.1444 23.3223 10.0666 22.9165 10.1333 22.4827C10.2 22.049 10.4 21.6881 10.7333 21.4001L11.7333 20.5334C11.6889 20.1334 11.6666 19.7334 11.6666 19.3334C11.6666 18.9334 11.6889 18.5334 11.7333 18.1334L10.7333 17.2334C10.4 16.9445 10.2 16.589 10.1333 16.1667C10.0666 15.7445 10.1444 15.3445 10.3666 14.9667L10.7333 14.3334C10.9555 13.9556 11.2666 13.6943 11.6666 13.5494C12.0666 13.4045 12.4666 13.3992 12.8666 13.5334L14.1333 13.9334C14.4444 13.689 14.7613 13.4721 15.084 13.2827C15.4066 13.0934 15.7564 12.9325 16.1333 12.8001L16.4333 11.4334C16.5222 11.0112 16.728 10.6667 17.0506 10.4001C17.3733 10.1334 17.7564 10.0001 18.2 10.0001H19C19.4444 10.0001 19.828 10.1334 20.1506 10.4001C20.4733 10.6667 20.6786 11.0112 20.7666 11.4334L21.0666 12.8001C21.4444 12.9334 21.7946 13.0947 22.1173 13.2841C22.44 13.4734 22.7564 13.6899 23.0666 13.9334L24.3333 13.5334C24.7333 13.4001 25.1333 13.4059 25.5333 13.5507C25.9333 13.6956 26.2444 13.9565 26.4666 14.3334L26.8333 14.9667C27.0555 15.3445 27.1333 15.7503 27.0666 16.1841C27 16.6179 26.8 16.9787 26.4666 17.2667L25.4666 18.1334C25.5111 18.5334 25.5333 18.9334 25.5333 19.3334C25.5333 19.7334 25.5111 20.1334 25.4666 20.5334L26.4666 21.4334C26.8 21.7223 27 22.0779 27.0666 22.5001C27.1333 22.9223 27.0555 23.3223 26.8333 23.7001L26.4666 24.3334C26.2444 24.7112 25.9333 24.9725 25.5333 25.1174C25.1333 25.2623 24.7333 25.2676 24.3333 25.1334L23.0666 24.7334C22.7555 24.9779 22.4391 25.1943 22.1173 25.3827C21.7955 25.5712 21.4453 25.7325 21.0666 25.8667L20.7666 27.2334C20.6778 27.6556 20.4724 28.0001 20.1506 28.2668C19.8289 28.5334 19.4453 28.6667 19 28.6667H18.2C17.7555 28.6667 17.3724 28.5334 17.0506 28.2668C16.7289 28.0001 16.5231 27.6556 16.4333 27.2334L16.1333 25.8667ZM18.6 23.3334C19.7111 23.3334 20.6555 22.9445 21.4333 22.1667C22.2111 21.389 22.6 20.4445 22.6 19.3334C22.6 18.2223 22.2111 17.2779 21.4333 16.5001C20.6555 15.7223 19.7111 15.3334 18.6 15.3334C17.4889 15.3334 16.5444 15.7223 15.7666 16.5001C14.9889 17.2779 14.6 18.2223 14.6 19.3334C14.6 20.4445 14.9889 21.389 15.7666 22.1667C16.5444 22.9445 17.4889 23.3334 18.6 23.3334Z" fill="#E97053"/>
</svg>
