<svg width="34" height="26" viewBox="0 0 34 26" fill="none" xmlns="http://www.w3.org/2000/svg">
<path fill-rule="evenodd" clip-rule="evenodd" d="M10.0508 22.8014V24.1306V25.4598H9.47051V25.137C9.28644 25.3764 9.00714 25.5266 8.6275 25.5266C7.87908 25.5266 7.29236 24.9429 7.29236 24.1306C7.29236 23.3189 7.87908 22.7346 8.6275 22.7346C9.00714 22.7346 9.28644 22.8848 9.47051 23.1242V22.8014H10.0508ZM8.69971 23.2795C8.19735 23.2795 7.88993 23.6633 7.88993 24.1306C7.88993 24.5978 8.19735 24.9817 8.69971 24.9817C9.1797 24.9817 9.50373 24.6144 9.50373 24.1306C9.50373 23.6468 9.1797 23.2795 8.69971 23.2795ZM29.6619 24.1306C29.6619 23.6633 29.9693 23.2795 30.4717 23.2795C30.9523 23.2795 31.2757 23.6468 31.2757 24.1306C31.2757 24.6144 30.9523 24.9817 30.4717 24.9817C29.9693 24.9817 29.6619 24.5978 29.6619 24.1306ZM31.8235 21.7339V24.1306V25.4598H31.2425V25.137C31.0584 25.3764 30.7791 25.5266 30.3995 25.5266C29.6511 25.5266 29.0643 24.9429 29.0643 24.1306C29.0643 23.3189 29.6511 22.7346 30.3995 22.7346C30.7791 22.7346 31.0584 22.8848 31.2425 23.1242V21.7339H31.8235ZM17.2545 23.2521C17.6284 23.2521 17.8687 23.4857 17.93 23.897L16.545 23.897C16.607 23.5131 16.841 23.2521 17.2545 23.2521ZM15.9366 24.1306C15.9366 23.3018 16.4837 22.7346 17.266 22.7346C18.0137 22.7346 18.5276 23.3018 18.5334 24.1306C18.5334 24.2083 18.5276 24.2808 18.5219 24.3528L16.5399 24.3528C16.6236 24.8315 16.9643 25.004 17.3382 25.004C17.606 25.004 17.891 24.9034 18.1147 24.7258L18.3991 25.1542C18.0751 25.4267 17.707 25.5266 17.305 25.5266C16.506 25.5266 15.9366 24.976 15.9366 24.1306ZM24.2734 24.1306C24.2734 23.6633 24.5808 23.2795 25.0832 23.2795C25.5632 23.2795 25.8872 23.6468 25.8872 24.1306C25.8872 24.6144 25.5632 24.9817 25.0832 24.9817C24.5808 24.9817 24.2734 24.5978 24.2734 24.1306ZM26.4343 22.8014V24.1306V25.4598H25.854V25.137C25.6693 25.3764 25.3906 25.5266 25.011 25.5266C24.2625 25.5266 23.6758 24.9429 23.6758 24.1306C23.6758 23.3189 24.2625 22.7346 25.011 22.7346C25.3906 22.7346 25.6693 22.8848 25.854 23.1242V22.8014H26.4343ZM20.9959 24.1306C20.9959 24.9371 21.5596 25.5266 22.4199 25.5266C22.8219 25.5266 23.0897 25.4375 23.3799 25.2096L23.1012 24.7423C22.8833 24.8983 22.6545 24.9817 22.4026 24.9817C21.9393 24.976 21.5986 24.6424 21.5986 24.1306C21.5986 23.6188 21.9393 23.2852 22.4026 23.2795C22.6545 23.2795 22.8833 23.3629 23.1012 23.5188L23.3799 23.0516C23.0897 22.8237 22.8219 22.7346 22.4199 22.7346C21.5596 22.7346 20.9959 23.324 20.9959 24.1306ZM27.7745 23.1242C27.9253 22.8905 28.1432 22.7346 28.4781 22.7346C28.5957 22.7346 28.7632 22.7568 28.8917 22.8071L28.7127 23.352C28.59 23.3018 28.4673 23.2852 28.3497 23.2852C27.97 23.2852 27.7802 23.5297 27.7802 23.9695V25.4598H27.1992V22.8014H27.7745V23.1242ZM12.9211 23.0128C12.6418 22.8294 12.2571 22.7346 11.8327 22.7346C11.1565 22.7346 10.7212 23.0573 10.7212 23.5857C10.7212 24.0192 11.0453 24.2866 11.6422 24.3699L11.9164 24.4088C12.2347 24.4533 12.3849 24.5367 12.3849 24.687C12.3849 24.8926 12.1727 25.0097 11.7764 25.0097C11.3744 25.0097 11.0843 24.8818 10.8887 24.7315L10.6151 25.1816C10.9334 25.4152 11.3354 25.5266 11.7707 25.5266C12.5415 25.5266 12.9882 25.165 12.9882 24.659C12.9882 24.1917 12.6367 23.9473 12.0557 23.8639L11.7822 23.8244C11.531 23.7913 11.3297 23.7416 11.3297 23.5634C11.3297 23.3686 11.5195 23.2521 11.8378 23.2521C12.1785 23.2521 12.5082 23.3801 12.6699 23.48L12.9211 23.0128ZM19.7062 23.1242C19.8564 22.8905 20.0743 22.7346 20.4092 22.7346C20.5268 22.7346 20.6943 22.7568 20.8227 22.8071L20.6438 23.352C20.5211 23.3018 20.3983 23.2852 20.2807 23.2852C19.9011 23.2852 19.7113 23.5297 19.7113 23.9695V25.4598H19.131V22.8014H19.7062V23.1242ZM15.4565 22.8014H14.5074V21.9949H13.9207V22.8014H13.3793V23.3298H13.9207V24.5425C13.9207 25.1593 14.161 25.5266 14.8474 25.5266C15.0992 25.5266 15.3894 25.4489 15.5735 25.321L15.406 24.8257C15.2328 24.9257 15.043 24.976 14.8921 24.976C14.602 24.976 14.5074 24.7977 14.5074 24.531V23.3298H15.4565V22.8014ZM6.7791 23.7913V25.4598H6.19238V23.9804C6.19238 23.5297 6.00256 23.2795 5.60629 23.2795C5.2209 23.2795 4.9531 23.5246 4.9531 23.9861V25.4598H4.36638V23.9804C4.36638 23.5297 4.17145 23.2795 3.78605 23.2795C3.38915 23.2795 3.13222 23.5246 3.13222 23.9861V25.4598H2.54614L2.54614 22.8014H3.12711V23.1292C3.34505 22.818 3.62371 22.7346 3.90877 22.7346C4.31653 22.7346 4.6067 22.9128 4.79077 23.2075C5.03683 22.8345 5.38835 22.7288 5.72901 22.7346C6.37708 22.7403 6.7791 23.163 6.7791 23.7913Z" fill="#231F20"/>
<path d="M21.5244 18.2845H12.7287V2.54053H21.5244V18.2845Z" fill="#FF5F00"/>
<path d="M13.2867 10.4128C13.2867 7.21903 14.7881 4.37415 17.126 2.54079C15.4163 1.20015 13.2586 0.399971 10.9137 0.399971C5.36217 0.399971 0.862061 4.88277 0.862061 10.4128C0.862061 15.9427 5.36217 20.4255 10.9137 20.4255C13.2586 20.4255 15.4163 19.6254 17.126 18.2847C14.7881 16.4514 13.2867 13.6065 13.2867 10.4128Z" fill="#EB001B"/>
<path d="M33.3906 10.4128C33.3906 15.9427 28.8905 20.4255 23.339 20.4255C20.994 20.4255 18.8363 19.6254 17.126 18.2847C19.4646 16.4514 20.9659 13.6065 20.9659 10.4128C20.9659 7.21903 19.4646 4.37415 17.126 2.54079C18.8363 1.20015 20.994 0.399971 23.339 0.399971C28.8905 0.399971 33.3906 4.88277 33.3906 10.4128Z" fill="#F79E1B"/>
</svg>
