<svg width="18" height="20" viewBox="0 0 18 20" fill="none" xmlns="http://www.w3.org/2000/svg">
<path d="M11.8516 15.2729V15.928C11.8516 16.623 11.575 17.2895 11.0827 17.7809C10.5903 18.2723 9.92258 18.5484 9.2263 18.5484C8.53001 18.5484 7.86225 18.2723 7.3699 17.7809C6.87755 17.2895 6.60096 16.623 6.60096 15.928V15.2729M16.2688 13.9394C15.2154 12.6526 14.4716 11.9975 14.4716 8.4498C14.4716 5.20098 12.8095 4.04352 11.4414 3.48137C11.2597 3.40686 11.0886 3.23572 11.0333 3.04943C10.7933 2.23425 10.1206 1.51611 9.2263 1.51611C8.33204 1.51611 7.65889 2.23466 7.42138 3.05024C7.366 3.23858 7.19494 3.40686 7.01322 3.48137C5.64353 4.04434 3.983 5.1977 3.983 8.4498C3.98095 11.9975 3.23724 12.6526 2.18382 13.9394C1.74736 14.4725 2.12968 15.2729 2.89307 15.2729H15.5636C16.3229 15.2729 16.7028 14.47 16.2688 13.9394Z" stroke="#25A189" stroke-width="2" stroke-linecap="round" stroke-linejoin="round"/>
</svg>
