<svg width="205" height="214" viewBox="0 0 205 214" fill="none" xmlns="http://www.w3.org/2000/svg">
<g clip-path="url(#clip0_482_877)">
<path fill-rule="evenodd" clip-rule="evenodd" d="M102.5 195.246C148.784 195.246 186.304 157.759 186.304 111.517C186.304 65.2749 148.784 27.7883 102.5 27.7883C56.2162 27.7883 18.6958 65.2749 18.6958 111.517C18.6958 157.759 56.2162 195.246 102.5 195.246Z" stroke="#25A189" stroke-width="0.305962" stroke-dasharray="1.84 1.84"/>
<path fill-rule="evenodd" clip-rule="evenodd" d="M102.5 213.006C158.601 213.006 204.081 167.568 204.081 111.517C204.081 55.4661 158.601 10.0278 102.5 10.0278C46.3984 10.0278 0.919189 55.4661 0.919189 111.517C0.919189 167.568 46.3984 213.006 102.5 213.006Z" stroke="#25A189" stroke-width="0.305962" stroke-dasharray="1.84 1.84"/>
<path d="M170.486 143.85C170.488 132.034 161.491 122.157 149.716 121.05C137.941 119.944 127.258 127.972 125.056 139.582L54.6299 137.673L55.403 149.762C55.403 149.762 45.3606 172.912 98.1403 179.081V202.48H159.156V163.575C166.168 159.474 170.479 151.967 170.486 143.85Z" fill="url(#paint0_linear_482_877)"/>
<path d="M57.8214 150.269C57.8214 150.269 48.2051 172.439 98.7499 178.353V200.771H157.184V141.403L57.0708 138.691L57.8214 150.269Z" fill="#FFCBB4"/>
<path d="M87.0259 57.7531C83.854 62.7537 77.2354 64.2564 72.212 61.1163L40.8377 40.4604C35.8325 37.2914 34.3285 30.6788 37.4714 25.6599C40.6428 20.6661 47.2529 19.1643 52.274 22.2967L83.6483 42.9526C88.6575 46.1179 90.1667 52.7313 87.0259 57.7531Z" fill="url(#paint1_linear_482_877)"/>
<path d="M85.2877 56.6253C82.3394 61.2735 76.1873 62.6703 71.5179 59.7517L42.3445 40.5364C37.6921 37.5907 36.294 31.4442 39.2152 26.779C42.1635 22.1308 48.3156 20.734 52.985 23.6526L82.1528 42.8566C86.8141 45.8008 88.2155 51.9562 85.2877 56.6253Z" fill="#FFCBB4"/>
<path d="M146.092 166.53C158.212 166.53 168.036 156.714 168.036 144.605C168.036 132.497 158.212 122.681 146.092 122.681C133.973 122.681 124.148 132.497 124.148 144.605C124.148 156.714 133.973 166.53 146.092 166.53Z" fill="#FFCBB4"/>
<path d="M142.142 0H58.0781C56.1691 0 54.6216 1.54616 54.6216 3.45345V160.61C54.6216 162.517 56.1691 164.063 58.0781 164.063H142.142C144.051 164.063 145.598 162.517 145.598 160.61V3.45345C145.598 1.54616 144.051 0 142.142 0Z" fill="url(#paint2_linear_482_877)"/>
<path d="M140.516 2.21875H59.6977C57.572 2.21875 55.8489 3.94036 55.8489 6.06407V158.005C55.8489 160.129 57.572 161.85 59.6977 161.85H140.516C142.642 161.85 144.365 160.129 144.365 158.005V6.06407C144.365 3.94036 142.642 2.21875 140.516 2.21875Z" fill="white"/>
<path d="M122.345 6.22192C121.816 9.71994 118.812 12.3094 115.271 12.3197H84.7007C81.1608 12.308 78.1584 9.71888 77.6295 6.22192H61.433C60.5413 6.22192 59.6857 6.57459 59.0549 7.20435C58.424 7.8341 58.0696 8.68855 58.0696 9.57953V154.484C58.0696 155.375 58.4226 156.229 59.0529 156.86C59.6832 157.49 60.5384 157.844 61.4302 157.844H138.784C139.676 157.844 140.531 157.491 141.162 156.862C141.793 156.232 142.147 155.377 142.147 154.486V9.58235C142.147 8.69137 141.794 7.83662 141.164 7.20634C140.534 6.57606 139.679 6.22192 138.787 6.22192H122.345Z" fill="#E9ECFF"/>
<path d="M109.531 8.13037H90.9337C90.622 8.13037 90.3694 8.38281 90.3694 8.6942V8.79851C90.3694 9.1099 90.622 9.36234 90.9337 9.36234H109.531C109.843 9.36234 110.096 9.1099 110.096 8.79851V8.6942C110.096 8.38281 109.843 8.13037 109.531 8.13037Z" fill="#DBDBDB"/>
<path d="M114.286 9.54223C114.794 9.54223 115.205 9.13103 115.205 8.62378C115.205 8.11653 114.794 7.70532 114.286 7.70532C113.778 7.70532 113.367 8.11653 113.367 8.62378C113.367 9.13103 113.778 9.54223 114.286 9.54223Z" fill="#DBDBDB"/>
<path d="M160.277 148.473C153.908 149.945 149.537 145.795 148.064 139.435L133.431 85.1468C131.975 78.7621 135.952 72.4009 142.334 70.9073C148.724 69.4526 155.091 73.426 156.586 79.8017L168.527 135.491C170 141.854 166.642 147.002 160.277 148.473Z" fill="url(#paint3_linear_482_877)"/>
<path d="M154.944 81.1304C153.703 75.7617 148.34 72.4151 142.966 73.6556C137.593 74.896 134.243 80.2538 135.485 85.6225L148.941 143.808C150.182 149.176 155.545 152.523 160.918 151.282C166.292 150.042 169.642 144.684 168.4 139.315L154.944 81.1304Z" fill="#FFCBB4"/>
<path d="M167.943 193.436H84.4214V212.888H167.943V193.436Z" fill="url(#paint4_linear_482_877)"/>
<path d="M165.686 195.691H86.6787V210.915H165.686V195.691Z" fill="#E9C469"/>
<path d="M74.8474 115.991C71.7141 120.932 65.1747 122.417 60.2114 119.315L39.17 105.712C34.2244 102.582 32.738 96.0483 35.8433 91.0894C38.9766 86.1482 45.516 84.6631 50.4794 87.7656L71.5207 101.368C76.4663 104.499 77.9527 111.032 74.8474 115.991Z" fill="url(#paint5_linear_482_877)"/>
<path d="M69.5651 144.783C66.4039 149.77 59.8049 151.269 54.7964 148.138L41.7631 138.643C36.772 135.484 35.2717 128.891 38.4053 123.887C41.5665 118.901 48.1655 117.402 53.174 120.533L66.2073 130.03C71.1967 133.189 72.6968 139.78 69.5651 144.783Z" fill="url(#paint6_linear_482_877)"/>
<g opacity="0.5">
<path d="M100.107 107.39C114.123 107.39 125.485 96.0378 125.485 82.0344C125.485 68.031 114.123 56.679 100.107 56.679C86.091 56.679 74.7288 68.031 74.7288 82.0344C74.7288 96.0378 86.091 107.39 100.107 107.39Z" fill="url(#paint7_linear_482_877)"/>
</g>
<path d="M100.107 105.898C113.299 105.898 123.993 95.214 123.993 82.0342C123.993 68.8545 113.299 58.1702 100.107 58.1702C86.9154 58.1702 76.2214 68.8545 76.2214 82.0342C76.2214 95.214 86.9154 105.898 100.107 105.898Z" fill="#25A189"/>
<path d="M89.7402 78.8487L98.6962 87.0524L111.385 68.4094L115.866 72.1392L98.6962 94.5119L86.0071 80.3429L89.7402 78.8487Z" fill="white"/>
<path d="M68.5128 144.075C65.5645 148.723 59.4124 150.12 54.743 147.202L42.5871 138.361C37.9347 135.415 36.5367 129.269 39.4579 124.603C42.4062 119.955 48.5582 118.558 53.2277 121.477L65.3807 130.335C70.0238 133.279 71.422 139.413 68.5128 144.075Z" fill="#FFCBB4"/>
<path d="M73.6905 115.244C70.7422 119.892 64.5902 121.289 59.9207 118.37L40.1238 105.571C35.4714 102.626 34.0733 96.4792 36.9945 91.8139C39.9428 87.1657 46.0949 85.7689 50.7643 88.6875L70.5613 101.486C75.2137 104.432 76.6118 110.579 73.6905 115.244Z" fill="#FFCBB4"/>
<path d="M80.2875 87.3344C77.1387 92.2972 70.5698 93.7884 65.5837 90.6722L38.9187 73.326C33.9514 70.1801 32.4588 63.6171 35.5778 58.6354C38.7266 53.6726 45.2956 52.1814 50.2817 55.2976L76.9466 72.6438C81.914 75.7897 83.4065 82.3527 80.2875 87.3344Z" fill="url(#paint8_linear_482_877)"/>
<path d="M78.871 86.4321C75.9227 91.0803 69.7706 92.4771 65.1012 89.5585L40.1264 73.3118C35.474 70.3661 34.076 64.2196 36.9972 59.5544C39.9455 54.9062 46.0976 53.5094 50.767 56.4279L75.7389 72.6747C80.3923 75.6194 81.7917 81.7661 78.871 86.4321Z" fill="#FFCBB4"/>
</g>
<defs>
<linearGradient id="paint0_linear_482_877" x1="112.562" y1="202.494" x2="112.562" y2="120.953" gradientUnits="userSpaceOnUse">
<stop stop-color="#808080" stop-opacity="0.25"/>
<stop offset="0.54" stop-color="#808080" stop-opacity="0.12"/>
<stop offset="1" stop-color="#808080" stop-opacity="0.1"/>
</linearGradient>
<linearGradient id="paint1_linear_482_877" x1="62.2458" y1="62.7599" x2="62.2458" y2="20.6588" gradientUnits="userSpaceOnUse">
<stop stop-color="#808080" stop-opacity="0.25"/>
<stop offset="0.54" stop-color="#808080" stop-opacity="0.12"/>
<stop offset="1" stop-color="#808080" stop-opacity="0.1"/>
</linearGradient>
<linearGradient id="paint2_linear_482_877" x1="100.11" y1="164.06" x2="100.11" y2="-0.00281633" gradientUnits="userSpaceOnUse">
<stop stop-color="#808080" stop-opacity="0.25"/>
<stop offset="0.54" stop-color="#808080" stop-opacity="0.12"/>
<stop offset="1" stop-color="#808080" stop-opacity="0.1"/>
</linearGradient>
<linearGradient id="paint3_linear_482_877" x1="150.999" y1="148.766" x2="150.999" y2="70.6028" gradientUnits="userSpaceOnUse">
<stop stop-color="#808080" stop-opacity="0.25"/>
<stop offset="0.54" stop-color="#808080" stop-opacity="0.12"/>
<stop offset="1" stop-color="#808080" stop-opacity="0.1"/>
</linearGradient>
<linearGradient id="paint4_linear_482_877" x1="126.188" y1="212.882" x2="126.188" y2="193.43" gradientUnits="userSpaceOnUse">
<stop stop-color="#808080" stop-opacity="0.25"/>
<stop offset="0.54" stop-color="#808080" stop-opacity="0.12"/>
<stop offset="1" stop-color="#808080" stop-opacity="0.1"/>
</linearGradient>
<linearGradient id="paint5_linear_482_877" x1="55.3411" y1="120.936" x2="55.3411" y2="86.1474" gradientUnits="userSpaceOnUse">
<stop stop-color="#808080" stop-opacity="0.25"/>
<stop offset="0.54" stop-color="#808080" stop-opacity="0.12"/>
<stop offset="1" stop-color="#808080" stop-opacity="0.1"/>
</linearGradient>
<linearGradient id="paint6_linear_482_877" x1="53.9866" y1="149.773" x2="53.9866" y2="118.895" gradientUnits="userSpaceOnUse">
<stop stop-color="#808080" stop-opacity="0.25"/>
<stop offset="0.54" stop-color="#808080" stop-opacity="0.12"/>
<stop offset="1" stop-color="#808080" stop-opacity="0.1"/>
</linearGradient>
<linearGradient id="paint7_linear_482_877" x1="100.107" y1="107.39" x2="100.107" y2="56.6761" gradientUnits="userSpaceOnUse">
<stop stop-color="#808080" stop-opacity="0.25"/>
<stop offset="0.54" stop-color="#808080" stop-opacity="0.12"/>
<stop offset="1" stop-color="#808080" stop-opacity="0.1"/>
</linearGradient>
<linearGradient id="paint8_linear_482_877" x1="57.9313" y1="92.3102" x2="57.9313" y2="53.6794" gradientUnits="userSpaceOnUse">
<stop stop-color="#808080" stop-opacity="0.25"/>
<stop offset="0.54" stop-color="#808080" stop-opacity="0.12"/>
<stop offset="1" stop-color="#808080" stop-opacity="0.1"/>
</linearGradient>
<clipPath id="clip0_482_877">
<rect width="205" height="214" fill="white"/>
</clipPath>
</defs>
</svg>
