<svg width="30" height="30" viewBox="0 0 30 30" fill="none" xmlns="http://www.w3.org/2000/svg">
<path d="M4.78752 0.3125C2.78752 0.3125 0.785024 1.8125 0.785024 4.8125L4.78752 12.8125L8.78753 4.8125C8.78753 1.8125 6.78752 0.3125 4.78752 0.3125ZM22.4313 2.75C22 2.76813 21.5813 2.85 21.2313 2.925L21.4688 4.025C21.8188 3.94688 22.1813 3.8975 22.4875 3.875L22.4313 2.75ZM4.78752 2.8125C5.89377 2.8125 6.78752 3.70813 6.78752 4.8125C6.78752 5.91875 5.89377 6.8125 4.78752 6.8125C3.68315 6.8125 2.78752 5.91875 2.78752 4.8125C2.78752 3.70813 3.68315 2.8125 4.78752 2.8125ZM23.675 2.825L23.4875 3.93125C23.7938 3.99563 24.1 4.07625 24.3688 4.2375L24.9125 3.25C24.5313 3.04688 24.1063 2.86438 23.675 2.825ZM20.0813 3.24375C19.7 3.3925 19.3188 3.52562 18.9938 3.65625L19.4375 4.6875C19.7813 4.54125 20.1438 4.41375 20.45 4.30625L20.0813 3.24375ZM25.9375 4.08125L25.0813 4.8125C25.3063 5.07 25.4813 5.3875 25.6188 5.64375L26.625 5.1375C26.4125 4.72812 26.225 4.41813 25.9375 4.08125ZM17.95 4.1375C17.5688 4.33187 17.2563 4.505 16.9188 4.675L17.4688 5.6625C17.7938 5.475 18.15 5.29375 18.4375 5.15L17.95 4.1375ZM15.9313 5.25625C15.6 5.45 15.275 5.64375 14.9563 5.85625L15.5688 6.79375C15.875 6.59375 16.1938 6.40625 16.5063 6.21875L15.9313 5.25625ZM27.0125 6.375C26.6438 6.4375 26.2688 6.48125 25.9 6.525C25.925 6.8375 25.9063 7.175 25.8438 7.4375L26.9375 7.69375C27 7.24375 27.0563 6.78125 27.0125 6.375ZM14.0063 6.48125C13.6938 6.69375 13.3875 6.9125 13.075 7.125L13.725 8.04375C14.025 7.825 14.3313 7.61875 14.6375 7.40625L14.0063 6.48125ZM12.1563 7.8C11.8438 8.025 11.5188 8.275 11.25 8.48125L11.9313 9.375C12.275 9.125 12.5125 8.9375 12.825 8.70625L12.1563 7.8ZM25.4688 8.3C25.2813 8.5875 25.0625 8.875 24.8438 9.09375L25.6625 9.875C25.9313 9.55625 26.2188 9.23125 26.4188 8.90625L25.4688 8.3ZM10.3563 9.18125C10.05 9.41875 9.74378 9.6625 9.47503 9.8875L10.1875 10.7563C10.4813 10.5125 10.7813 10.2625 11.0563 10.0625L10.3563 9.18125ZM24.0688 9.8125C23.7813 10.0437 23.4813 10.2688 23.2063 10.4563L23.85 11.3813C24.1813 11.1562 24.5063 10.9125 24.7875 10.6875L24.0688 9.8125ZM8.60627 10.6187C8.31252 10.8562 8.03127 11.1063 7.74377 11.35L8.47503 12.2063C8.75628 11.9625 9.03752 11.7188 9.32502 11.4812L8.60627 10.6187ZM22.2875 11.0562C21.9688 11.2437 21.6375 11.4375 21.3375 11.6L21.875 12.5938C22.2125 12.3875 22.5938 12.2063 22.875 12.0188L22.2875 11.0562ZM6.88752 12.0938C6.60627 12.3438 6.33127 12.5938 6.05002 12.85L6.80627 13.6875C7.08127 13.4375 7.36252 13.1875 7.63752 12.9375L6.88752 12.0938ZM20.3563 12.1187C20.025 12.2812 19.6938 12.45 19.3625 12.6125L19.8438 13.625C20.2313 13.4375 20.5188 13.2812 20.8688 13.1187L20.3563 12.1187ZM18.3563 13.0813C18.0125 13.2375 17.6813 13.3875 17.3313 13.5312L17.7875 14.5625C18.1313 14.4125 18.475 14.2563 18.8188 14.1L18.3563 13.0813ZM5.22502 13.625C4.90627 13.9062 4.6844 14.125 4.39377 14.4062L5.18752 15.2188C5.48127 14.9375 5.71877 14.6938 5.99377 14.4563L5.22502 13.625ZM16.3063 13.9875C15.9625 14.1313 15.6188 14.2812 15.275 14.425L15.7125 15.4688C16.0625 15.325 16.4063 15.175 16.75 15.025L16.3063 13.9875ZM14.2375 14.8625C13.8938 15.0125 13.55 15.1625 13.2 15.3L13.6375 16.3438C13.9813 16.2 14.3313 16.05 14.675 15.9062L14.2375 14.8625ZM25.7875 15.3125C23.7875 15.3125 21.7875 16.8125 21.7875 19.8125L25.7875 27.8125L29.7875 19.8125C29.7875 16.8125 27.7875 15.3125 25.7875 15.3125ZM12.1625 15.7375C11.8063 15.9 11.4313 16.05 11.125 16.1812L11.5688 17.2188C11.9375 17.0625 12.2875 16.9125 12.6 16.775L12.1625 15.7375ZM10.0875 16.625C9.75002 16.7812 9.35627 16.9562 9.05627 17.0938L9.51877 18.1187C9.88752 17.9562 10.2125 17.7938 10.5375 17.6562L10.0875 16.625ZM8.02502 17.5625C7.67502 17.7313 7.31252 17.9062 7.00002 18.0625L7.50627 19.0688C7.84377 18.8938 8.19377 18.7312 8.50002 18.5812L8.02502 17.5625ZM25.7875 17.8125C26.8938 17.8125 27.7875 18.7062 27.7875 19.8125C27.7875 20.9188 26.8938 21.8125 25.7875 21.8125C24.6813 21.8125 23.7875 20.9188 23.7875 19.8125C23.7875 18.7062 24.6813 17.8125 25.7875 17.8125ZM5.98752 18.5812C5.65627 18.7625 5.32502 18.95 4.98752 19.1437L5.55002 20.1187C5.86877 19.9312 6.19377 19.7562 6.51877 19.5812L5.98752 18.5812ZM4.00627 19.75C3.65565 19.95 3.3169 20.2188 3.02502 20.4125L3.70627 21.3125C4.0169 21.0875 4.35127 20.8563 4.61877 20.6938L4.00627 19.75ZM2.13752 21.1625C1.83752 21.4375 1.5419 21.7563 1.31252 22.025L2.16877 22.7563C2.4094 22.4625 2.61877 22.2437 2.90002 21.9937L2.13752 21.1625ZM15.75 21.2437L15.85 22.3625C16.175 22.3062 16.5 22.3438 16.825 22.3937L17.0188 21.2875C16.6063 21.225 16.1688 21.1812 15.75 21.2437ZM13.425 21.8687L13.85 22.9125C14.175 22.7688 14.5125 22.6562 14.8563 22.55C14.7375 22.1937 14.65 21.8312 14.5563 21.4688C14.1625 21.5812 13.7688 21.7312 13.425 21.8687ZM18.2688 21.8125L17.6313 22.7375C17.8938 22.9312 18.15 23.1375 18.3563 23.3937L19.2063 22.6562C18.8875 22.3312 18.6438 22.025 18.2688 21.8125ZM12.3625 22.375C12.0188 22.55 11.6875 22.75 11.3563 22.9438L11.925 23.9125C12.25 23.7375 12.5688 23.5312 12.8875 23.3625L12.3625 22.375ZM0.625649 23.0625C0.436899 23.4688 0.283774 23.9062 0.212524 24.2938L1.31877 24.4875C1.38627 24.1312 1.48315 23.875 1.62502 23.5688C1.2819 23.4188 0.954399 23.2375 0.625649 23.0625ZM10.3813 23.55C10.0625 23.7562 9.75002 23.9625 9.43752 24.175L10.0625 25.1125C10.375 24.9062 10.6813 24.6937 10.9938 24.4875L10.3813 23.55ZM19.925 23.625L18.9813 24.2375C19.1813 24.5375 19.375 24.85 19.5563 25.1688L20.5313 24.6063C20.3125 24.2563 20.1563 23.9438 19.925 23.625ZM8.50628 24.8125C8.19378 25.0187 7.88127 25.2188 7.57502 25.4375L8.20002 26.375C8.50002 26.1562 8.81877 25.95 9.13752 25.7375L8.50628 24.8125ZM1.33127 25.4062C0.969399 25.4813 0.604399 25.5437 0.240649 25.6125C0.306274 26.05 0.481899 26.475 0.640649 26.8125L1.65627 26.325C1.52065 26.0125 1.3919 25.6875 1.33127 25.4062ZM21.0875 25.5812L20.1125 26.1437C20.3063 26.4812 20.5313 26.8438 20.7125 27.1313L21.6563 26.525C21.4438 26.1938 21.2625 25.8812 21.0875 25.5812ZM6.65002 26.05C6.33752 26.2437 6.03127 26.4312 5.70627 26.6125L6.26252 27.5938C6.59377 27.4 6.92502 27.2062 7.24377 27L6.65002 26.05ZM2.19377 27.0688L1.42502 27.8937C1.77252 28.225 2.20127 28.4438 2.66877 28.5438L2.91877 27.45C2.64127 27.3938 2.3819 27.2563 2.19377 27.0688ZM4.75627 27.0875C4.44315 27.2312 4.11815 27.3438 3.78127 27.4125L4.03752 28.5125C4.43877 28.4313 4.81627 28.2812 5.19377 28.125L4.75627 27.0875ZM22.275 27.3875L21.4063 28.0938C21.675 28.425 22.0063 28.7437 22.2938 28.9688L22.9875 28.0812C22.7125 27.8687 22.475 27.6125 22.275 27.3875ZM23.7813 28.4813L23.5 29.575C23.9938 29.675 24.3625 29.7062 24.825 29.6562L24.6875 28.5375C24.3813 28.5875 24.0813 28.5563 23.7813 28.4813Z" fill="#E97053"/>
</svg>
