<svg width="24" height="24" viewBox="0 0 24 24" fill="none" xmlns="http://www.w3.org/2000/svg">
<path d="M21.2493 3.64241C21.2493 2.76767 20.5402 2.05859 19.6654 2.05859H1.58386C0.709219 2.05859 0 2.76772 0 3.64241V21.7239C0 22.1766 0.190266 22.5846 0.494812 22.8733H19.6654V23.3077H22.4398C23.1214 23.3077 23.7025 22.877 23.9258 22.2729C24.1109 21.7838 24.1763 22.719 21.2493 3.64241Z" fill="#7C7C7C"/>
<path d="M22.216 21.7239V9.94611L21.2489 3.64241C21.2489 2.76767 20.5397 2.05859 19.665 2.05859H2.55066C1.67602 2.05859 0.966797 2.76767 0.966797 3.64241V21.7239C0.966797 22.1766 1.15706 22.5846 1.46161 22.8733H19.665V23.3077H20.6322C21.5069 23.3078 22.216 22.5987 22.216 21.7239Z" fill="#F2F3F2"/>
<path d="M19.6654 2.05859H1.58386C0.709219 2.05859 0 2.76772 0 3.64241V21.7239C0 22.5987 0.709219 23.3077 1.58386 23.3077H19.6654C20.5401 23.3077 21.2493 22.5987 21.2493 21.7239V3.64241C21.2493 2.76772 20.5401 2.05859 19.6654 2.05859Z" fill="#F2F3F2"/>
<path d="M0.967172 21.7239V3.64241C0.967172 2.76767 1.67639 2.05859 2.55103 2.05859H1.58386C0.709219 2.05859 0 2.76772 0 3.64241V21.7239C0 22.5987 0.709219 23.3077 1.58386 23.3077H2.55103C1.67644 23.3078 0.967172 22.5987 0.967172 21.7239Z" fill="#F2F3F2"/>
<path d="M19.6654 2.05859H1.58386C0.709219 2.05859 0 2.76772 0 3.64241V7.71097H21.2493V3.64241C21.2493 2.76772 20.5401 2.05859 19.6654 2.05859Z" fill="#581D8A"/>
<path d="M0.967172 3.64241C0.967172 2.76767 1.67639 2.05859 2.55103 2.05859H1.58386C0.709219 2.05859 0 2.76772 0 3.64241V7.71097H0.967172V3.64241Z" fill="#581D8A"/>
<path d="M16.9615 3.47461V3.80433C16.9615 4.12486 16.7018 4.14286 16.3812 4.14286H16.1878C15.8673 4.14286 15.6075 4.12486 15.6075 3.80433V3.47466C15.3006 3.68878 15.0997 4.04419 15.0997 4.44675C15.0997 5.10112 15.6302 5.63156 16.2845 5.63156C17.445 5.63152 17.9059 4.13367 16.9615 3.47461ZM10.965 3.47461V3.80433C10.965 4.12486 10.7052 4.09448 10.3847 4.09448H10.1912C9.87071 4.09448 9.61088 4.12486 9.61088 3.80433V3.47466C9.30404 3.68878 9.10309 4.04419 9.10309 4.44675C9.10309 5.10112 9.63357 5.63156 10.2879 5.63156C10.9423 5.63156 11.4727 5.10112 11.4727 4.44675C11.4727 4.04419 11.2718 3.68873 10.965 3.47461ZM4.96839 3.47461V3.80433C4.96839 4.17802 4.61668 4.14286 4.19462 4.14286C3.87414 4.14286 3.61431 4.12486 3.61431 3.80433V3.47466C2.66898 4.13437 3.13234 5.63156 4.29132 5.63156C4.9457 5.63156 5.47614 5.10112 5.47614 4.44675C5.47614 4.04419 5.27518 3.68873 4.96839 3.47461Z" fill="#09090A"/>
<path d="M16.1152 4.4467C16.1152 4.42425 16.116 4.40203 16.1173 4.37991C15.8301 4.34508 15.6074 4.10091 15.6074 3.80428V3.47461C15.3006 3.68873 15.0996 4.04414 15.0996 4.4467C15.0996 5.10108 15.6301 5.63152 16.2844 5.63152C16.4661 5.63152 16.6383 5.5905 16.7922 5.51733C16.3919 5.32716 16.1152 4.9193 16.1152 4.4467ZM10.1186 4.4467C10.1186 4.42425 10.1195 4.40203 10.1207 4.37991C9.83348 4.34508 9.61082 4.10091 9.61082 3.80428V3.47461C9.30398 3.68873 9.10302 4.04414 9.10302 4.4467C9.10302 5.10108 9.63351 5.63152 10.2878 5.63152C10.4696 5.63152 10.6417 5.5905 10.7956 5.51733C10.3954 5.32716 10.1186 4.9193 10.1186 4.4467ZM4.1241 4.37991C3.8369 4.34508 3.61424 4.10091 3.61424 3.80428V3.47461C3.3074 3.68873 3.10645 4.04414 3.10645 4.4467C3.10645 5.31933 4.01788 5.88853 4.79901 5.51733C4.3746 5.31562 4.09663 4.87477 4.1241 4.37991Z" fill="#09090A"/>
<path d="M0 7.71069H21.2494V9.06477H0V7.71069Z" fill="#581D8A"/>
<path d="M0 7.71069H0.967172V9.06477H0V7.71069Z" fill="#581D8A"/>
<path d="M4.38802 0C4.70855 0 4.96834 0.259828 4.96834 0.580312V3.80428C4.96834 4.12481 4.70855 4.38459 4.38802 4.38459H4.19457C3.87409 4.38459 3.61426 4.12481 3.61426 3.80428V0.580312C3.61426 0.259828 3.87409 0 4.19457 0H4.38802ZM10.3846 0C10.7051 0 10.9649 0.259828 10.9649 0.580312V3.80428C10.9649 4.12481 10.7051 4.38459 10.3846 4.38459H10.1911C9.87066 4.38459 9.61084 4.12481 9.61084 3.80428V0.580312C9.61084 0.259828 9.87066 0 10.1911 0H10.3846ZM16.3812 0C16.7017 0 16.9615 0.259828 16.9615 0.580312V3.80428C16.9615 4.12481 16.7017 4.38459 16.3812 4.38459H16.1877C15.8672 4.38459 15.6074 4.12481 15.6074 3.80428V0.580312C15.6074 0.259828 15.8672 0 16.1877 0H16.3812Z" fill="#09090A"/>
<path d="M4.38802 0C4.70855 0 4.96834 0.259828 4.96834 0.580312V3.80428C4.96834 4.12481 4.70855 4.38459 4.38802 4.38459H4.19457C3.87409 4.38459 3.61426 4.12481 3.61426 3.80428V0.580312C3.61426 0.259828 3.87409 0 4.19457 0H4.38802ZM10.3846 0C10.7051 0 10.9649 0.259828 10.9649 0.580312V3.80428C10.9649 4.12481 10.7051 4.38459 10.3846 4.38459H10.1911C9.87066 4.38459 9.61084 4.12481 9.61084 3.80428V0.580312C9.61084 0.259828 9.87066 0 10.1911 0H10.3846ZM16.3812 0C16.7017 0 16.9615 0.259828 16.9615 0.580312V3.80428C16.9615 4.12481 16.7017 4.38459 16.3812 4.38459H16.1877C15.8672 4.38459 15.6074 4.12481 15.6074 3.80428V0.580312C15.6074 0.259828 15.8672 0 16.1877 0H16.3812Z" fill="#09090A"/>
<path d="M4.29127 3.80428V0.580312C4.29127 0.346219 4.43021 0.145031 4.6298 0.05325C4.55401 0.0182302 4.47152 6.27874e-05 4.38802 0H4.19457C3.87409 0 3.61426 0.259828 3.61426 0.580312V3.80428C3.61426 4.12481 3.87409 4.38459 4.19457 4.38459H4.38802C4.47446 4.38459 4.55616 4.36519 4.6298 4.33134C4.43021 4.23961 4.29127 4.03837 4.29127 3.80428ZM10.2879 3.80428V0.580312C10.2879 0.346219 10.4268 0.145031 10.6264 0.05325C10.5506 0.0182302 10.4681 6.27874e-05 10.3846 0H10.1911C9.87066 0 9.61084 0.259828 9.61084 0.580312V3.80428C9.61084 4.12481 9.87066 4.38459 10.1911 4.38459H10.3846C10.471 4.38459 10.5527 4.36519 10.6264 4.33134C10.4268 4.23961 10.2879 4.03837 10.2879 3.80428ZM16.2844 3.80428V0.580312C16.2844 0.346219 16.4234 0.145031 16.623 0.05325C16.5472 0.0182302 16.4647 6.27874e-05 16.3812 0H16.1877C15.8672 0 15.6074 0.259828 15.6074 0.580312V3.80428C15.6074 4.12481 15.8672 4.38459 16.1877 4.38459H16.3812C16.4676 4.38459 16.5493 4.36519 16.623 4.33134C16.4234 4.23961 16.2844 4.03837 16.2844 3.80428Z" fill="#09090A"/>
<path d="M7.90384 11.2872H6.70975C6.61355 11.2872 6.52129 11.3254 6.45327 11.3935C6.38525 11.4615 6.34703 11.5538 6.34703 11.65C6.34703 11.7461 6.38525 11.8384 6.45327 11.9064C6.52129 11.9745 6.61355 12.0127 6.70975 12.0127H7.90384C8.00004 12.0127 8.0923 11.9745 8.16032 11.9064C8.22835 11.8384 8.26656 11.7461 8.26656 11.65C8.26656 11.5538 8.22835 11.4615 8.16032 11.3935C8.0923 11.3254 8.00004 11.2872 7.90384 11.2872ZM11.2236 11.2872H10.0293C9.93315 11.2872 9.84089 11.3254 9.77286 11.3935C9.70484 11.4615 9.66663 11.5538 9.66663 11.65C9.66663 11.7461 9.70484 11.8384 9.77286 11.9064C9.84089 11.9745 9.93315 12.0127 10.0293 12.0127H11.2236C11.3188 12.0111 11.4095 11.9722 11.4763 11.9044C11.5431 11.8365 11.5805 11.7452 11.5805 11.65C11.5805 11.5547 11.5431 11.4634 11.4763 11.3955C11.4095 11.3276 11.3188 11.2888 11.2236 11.2872ZM14.5433 11.2872H13.349C13.2528 11.2872 13.1605 11.3254 13.0925 11.3935C13.0245 11.4615 12.9863 11.5538 12.9863 11.65C12.9863 11.7461 13.0245 11.8384 13.0925 11.9064C13.1605 11.9745 13.2528 12.0127 13.349 12.0127H14.5433C14.6395 12.0127 14.7317 11.9745 14.7997 11.9064C14.8678 11.8384 14.906 11.7461 14.906 11.65C14.906 11.5538 14.8678 11.4615 14.7997 11.3935C14.7317 11.3254 14.6395 11.2872 14.5433 11.2872ZM17.8629 11.2872H16.6686C16.5724 11.2872 16.4802 11.3254 16.4121 11.3935C16.3441 11.4615 16.3059 11.5538 16.3059 11.65C16.3059 11.7461 16.3441 11.8384 16.4121 11.9064C16.4802 11.9745 16.5724 12.0127 16.6686 12.0127H17.8629C17.958 12.0111 18.0488 11.9722 18.1156 11.9044C18.1824 11.8365 18.2198 11.7452 18.2198 11.65C18.2198 11.5547 18.1824 11.4634 18.1156 11.3955C18.0488 11.3276 17.958 11.2888 17.8629 11.2872ZM4.5843 14.2094H3.39006C3.29386 14.2094 3.2016 14.2476 3.13358 14.3157C3.06556 14.3837 3.02734 14.4759 3.02734 14.5721C3.02734 14.6683 3.06556 14.7606 3.13358 14.8286C3.2016 14.8966 3.29386 14.9349 3.39006 14.9349H4.5843C4.6805 14.9349 4.77275 14.8966 4.84078 14.8286C4.9088 14.7606 4.94702 14.6683 4.94702 14.5721C4.94702 14.4759 4.9088 14.3837 4.84078 14.3157C4.77275 14.2476 4.6805 14.2094 4.5843 14.2094ZM7.90384 14.2094H6.70975C6.61355 14.2094 6.52129 14.2476 6.45327 14.3157C6.38525 14.3837 6.34703 14.4759 6.34703 14.5721C6.34703 14.6683 6.38525 14.7606 6.45327 14.8286C6.52129 14.8966 6.61355 14.9349 6.70975 14.9349H7.90384C7.95148 14.9349 7.99865 14.9255 8.04266 14.9073C8.08667 14.889 8.12666 14.8623 8.16034 14.8286C8.19402 14.7949 8.22074 14.755 8.23897 14.711C8.25719 14.6669 8.26657 14.6198 8.26656 14.5721C8.26657 14.5245 8.25719 14.4773 8.23897 14.4333C8.22074 14.3893 8.19402 14.3493 8.16034 14.3156C8.12666 14.282 8.08667 14.2552 8.04266 14.237C7.99865 14.2188 7.95148 14.2094 7.90384 14.2094ZM11.2236 14.2094H10.0293C9.93315 14.2094 9.84089 14.2476 9.77286 14.3157C9.70484 14.3837 9.66663 14.4759 9.66663 14.5721C9.66663 14.6683 9.70484 14.7606 9.77286 14.8286C9.84089 14.8966 9.93315 14.9349 10.0293 14.9349H11.2236C11.3198 14.9349 11.412 14.8966 11.4801 14.8286C11.5481 14.7606 11.5863 14.6683 11.5863 14.5721C11.5863 14.4759 11.5481 14.3837 11.4801 14.3157C11.412 14.2476 11.3198 14.2094 11.2236 14.2094ZM14.5433 14.2094H13.349C13.2528 14.2094 13.1605 14.2476 13.0925 14.3157C13.0245 14.3837 12.9863 14.4759 12.9863 14.5721C12.9863 14.6683 13.0245 14.7606 13.0925 14.8286C13.1605 14.8966 13.2528 14.9349 13.349 14.9349H14.5433C14.6395 14.9349 14.7317 14.8966 14.7997 14.8286C14.8678 14.7606 14.906 14.6683 14.906 14.5721C14.906 14.4759 14.8678 14.3837 14.7997 14.3157C14.7317 14.2476 14.6395 14.2094 14.5433 14.2094ZM17.8629 14.2094H16.6686C16.5724 14.2094 16.4802 14.2476 16.4121 14.3157C16.3441 14.3837 16.3059 14.4759 16.3059 14.5721C16.3059 14.6683 16.3441 14.7606 16.4121 14.8286C16.4802 14.8966 16.5724 14.9349 16.6686 14.9349H17.8629C17.9591 14.9349 18.0513 14.8966 18.1193 14.8286C18.1874 14.7606 18.2256 14.6683 18.2256 14.5721C18.2256 14.4759 18.1874 14.3837 18.1193 14.3157C18.0513 14.2476 17.9591 14.2094 17.8629 14.2094ZM4.5843 17.1316H3.39006C3.29386 17.1316 3.2016 17.1698 3.13358 17.2378C3.06556 17.3059 3.02734 17.3981 3.02734 17.4943C3.02734 17.5905 3.06556 17.6828 3.13358 17.7508C3.2016 17.8188 3.29386 17.857 3.39006 17.857H4.5843C4.78464 17.857 4.94702 17.6947 4.94702 17.4943C4.94702 17.294 4.78464 17.1316 4.5843 17.1316ZM7.90384 17.1316H6.70975C6.61355 17.1316 6.52129 17.1698 6.45327 17.2378C6.38525 17.3059 6.34703 17.3981 6.34703 17.4943C6.34703 17.5905 6.38525 17.6828 6.45327 17.7508C6.52129 17.8188 6.61355 17.857 6.70975 17.857H7.90384C8.10419 17.857 8.26656 17.6947 8.26656 17.4943C8.26656 17.294 8.10419 17.1316 7.90384 17.1316ZM11.2236 17.1316H10.0293C9.93315 17.1316 9.84089 17.1698 9.77286 17.2378C9.70484 17.3059 9.66663 17.3981 9.66663 17.4943C9.66663 17.5905 9.70484 17.6828 9.77286 17.7508C9.84089 17.8188 9.93315 17.857 10.0293 17.857H11.2236C11.4239 17.857 11.5863 17.6947 11.5863 17.4943C11.5863 17.294 11.4239 17.1316 11.2236 17.1316ZM14.5433 17.1316H13.349C13.2528 17.1316 13.1605 17.1698 13.0925 17.2378C13.0245 17.3059 12.9863 17.3981 12.9863 17.4943C12.9863 17.5905 13.0245 17.6828 13.0925 17.7508C13.1605 17.8188 13.2528 17.857 13.349 17.857H14.5433C14.6395 17.857 14.7317 17.8188 14.7997 17.7508C14.8678 17.6828 14.906 17.5905 14.906 17.4943C14.906 17.3981 14.8678 17.3059 14.7997 17.2378C14.7317 17.1698 14.6395 17.1316 14.5433 17.1316ZM17.8629 17.1316H16.6686C16.5724 17.1316 16.4802 17.1698 16.4121 17.2378C16.3441 17.3059 16.3059 17.3981 16.3059 17.4943C16.3059 17.5905 16.3441 17.6828 16.4121 17.7508C16.4802 17.8188 16.5724 17.857 16.6686 17.857H17.8629C18.0632 17.857 18.2256 17.6947 18.2256 17.4943C18.2256 17.294 18.0632 17.1316 17.8629 17.1316ZM4.5843 20.0538H3.39006C3.29386 20.0538 3.2016 20.0921 3.13358 20.1601C3.06556 20.2281 3.02734 20.3204 3.02734 20.4166C3.02734 20.5128 3.06556 20.605 3.13358 20.673C3.2016 20.7411 3.29386 20.7793 3.39006 20.7793H4.5843C4.6805 20.7793 4.77275 20.7411 4.84078 20.673C4.9088 20.605 4.94702 20.5128 4.94702 20.4166C4.94702 20.3204 4.9088 20.2281 4.84078 20.1601C4.77275 20.0921 4.6805 20.0538 4.5843 20.0538ZM7.90384 20.0538H6.70975C6.61355 20.0538 6.52129 20.0921 6.45327 20.1601C6.38525 20.2281 6.34703 20.3204 6.34703 20.4166C6.34703 20.5128 6.38525 20.605 6.45327 20.673C6.52129 20.7411 6.61355 20.7793 6.70975 20.7793H7.90384C7.95148 20.7793 7.99865 20.7699 8.04266 20.7517C8.08667 20.7335 8.12666 20.7067 8.16034 20.6731C8.19402 20.6394 8.22074 20.5994 8.23897 20.5554C8.25719 20.5114 8.26657 20.4642 8.26656 20.4166C8.26657 20.3689 8.25719 20.3218 8.23897 20.2777C8.22074 20.2337 8.19402 20.1937 8.16034 20.1601C8.12666 20.1264 8.08667 20.0997 8.04266 20.0814C7.99865 20.0632 7.95148 20.0538 7.90384 20.0538ZM11.2236 20.0538H10.0293C9.93315 20.0538 9.84089 20.0921 9.77286 20.1601C9.70484 20.2281 9.66663 20.3204 9.66663 20.4166C9.66663 20.5128 9.70484 20.605 9.77286 20.673C9.84089 20.7411 9.93315 20.7793 10.0293 20.7793H11.2236C11.3198 20.7793 11.412 20.7411 11.4801 20.673C11.5481 20.605 11.5863 20.5128 11.5863 20.4166C11.5863 20.3204 11.5481 20.2281 11.4801 20.1601C11.412 20.0921 11.3198 20.0538 11.2236 20.0538ZM14.5433 20.0538H13.349C13.2528 20.0538 13.1605 20.0921 13.0925 20.1601C13.0245 20.2281 12.9863 20.3204 12.9863 20.4166C12.9863 20.5128 13.0245 20.605 13.0925 20.673C13.1605 20.7411 13.2528 20.7793 13.349 20.7793H14.5433C14.6395 20.7793 14.7317 20.7411 14.7997 20.673C14.8678 20.605 14.906 20.5128 14.906 20.4166C14.906 20.3204 14.8678 20.2281 14.7997 20.1601C14.7317 20.0921 14.6395 20.0538 14.5433 20.0538Z" fill="#09090A"/>
</svg>
