<svg width="24" height="24" viewBox="0 0 24 24" fill="none" xmlns="http://www.w3.org/2000/svg">
<path fill-rule="evenodd" clip-rule="evenodd" d="M3.33333 6.26666L4.66667 2.66666H19.3333C20.0917 4.72515 20.7591 6.81607 21.3333 8.93332V9.73332L20.9333 10.2667C20.778 10.3947 20.5956 10.4858 20.4 10.5333C20.1434 10.6371 19.8566 10.6371 19.6 10.5333C19.4044 10.4858 19.222 10.3947 19.0667 10.2667L18.8 9.73332L18.6667 8.93332C18.6667 8.5797 18.5262 8.24056 18.2761 7.99051C18.0261 7.74047 17.687 7.59999 17.3333 7.59999C16.9797 7.59999 16.6406 7.74047 16.3905 7.99051C16.1405 8.24056 16 8.5797 16 8.93332C16 9.46666 15.8667 9.86666 15.6 10.2667C15.3538 10.5179 15.0184 10.6616 14.6667 10.6667C14.4913 10.6723 14.3169 10.6394 14.1556 10.5702C13.9943 10.5011 13.8502 10.3975 13.7333 10.2667C13.4667 9.86666 13.3333 9.46666 13.3333 8.93332C13.3333 8.5797 13.1929 8.24056 12.9428 7.99051C12.6928 7.74047 12.3536 7.59999 12 7.59999C11.6464 7.59999 11.3072 7.74047 11.0572 7.99051C10.8071 8.24056 10.6667 8.5797 10.6667 8.93332C10.6667 9.46666 10.5333 9.86666 10.2667 10.2667C10.0205 10.5179 9.68503 10.6616 9.33333 10.6667C9.15798 10.6723 8.98353 10.6394 8.82227 10.5702C8.66101 10.5011 8.51687 10.3975 8.4 10.2667C8.13333 9.86666 8 9.46666 8 8.93332C8 8.5797 7.85952 8.24056 7.60948 7.99051C7.35943 7.74047 7.02029 7.59999 6.66667 7.59999C6.31305 7.59999 5.97391 7.74047 5.72386 7.99051C5.47381 8.24056 5.33333 8.5797 5.33333 8.93332C5.34584 9.30681 5.25346 9.67633 5.06667 9.99999L4.93333 10.2667C4.77797 10.3947 4.59563 10.4858 4.4 10.5333L4 10.6667C3.74298 10.6025 3.51089 10.4633 3.33333 10.2667H3.2C2.93333 9.86666 2.66667 9.46666 2.66667 8.93332V8.66666L2.8 7.99999L3.33333 6.26666ZM1.33333 12L1.2 11.8667C0.47006 11.0588 0.0455648 10.0211 0 8.93332L0.266667 7.33332C0.730392 5.41751 1.35483 3.54421 2.13333 1.73332C2.32559 1.21862 2.67214 0.775863 3.1256 0.465603C3.57905 0.155344 4.11728 -0.00727338 4.66667 -1.10768e-05H19.3333C19.8447 0.00846573 20.3428 0.163804 20.7683 0.447489C21.1939 0.731173 21.5288 1.13124 21.7333 1.59999C22.6098 4.00541 23.3663 6.45287 24 8.93332C24.023 10.0503 23.6445 11.1384 22.9333 12L22.6667 12.2667V21.3333C22.6667 22.0406 22.3857 22.7188 21.8856 23.2189C21.3855 23.719 20.7072 24 20 24H12C11.6464 24 11.3072 23.8595 11.0572 23.6095C10.8071 23.3594 10.6667 23.0203 10.6667 22.6667V17.3333H6.66667V22.6667C6.66667 23.4667 6.13333 24 5.33333 24H4C3.29276 24 2.61448 23.719 2.11438 23.2189C1.61428 22.7188 1.33333 22.0406 1.33333 21.3333V12.1333V12ZM13.3333 15.8667C13.3333 15.0667 13.8667 14.5333 14.6667 14.5333H17.3333C18.1333 14.5333 18.6667 15.0667 18.6667 15.8667V18.5333C18.6667 19.3333 18.1333 19.8667 17.3333 19.8667H14.6667C14.313 19.8667 13.9739 19.7262 13.7239 19.4761C13.4738 19.2261 13.3333 18.8869 13.3333 18.5333V15.8667Z" fill="#E97053"/>
</svg>
