<svg width="32" height="32" viewBox="0 0 32 32" fill="none" xmlns="http://www.w3.org/2000/svg">
<g clip-path="url(#clip0_33_429)">
<path d="M12 2.66675H4.00002C3.6464 2.66675 3.30726 2.80722 3.05721 3.05727C2.80716 3.30732 2.66669 3.64646 2.66669 4.00008V12.0001C2.66669 12.3537 2.80716 12.6928 3.05721 12.9429C3.30726 13.1929 3.6464 13.3334 4.00002 13.3334H12C12.3536 13.3334 12.6928 13.1929 12.9428 12.9429C13.1929 12.6928 13.3334 12.3537 13.3334 12.0001V4.00008C13.3334 3.64646 13.1929 3.30732 12.9428 3.05727C12.6928 2.80722 12.3536 2.66675 12 2.66675ZM12 18.6667H4.00002C3.6464 18.6667 3.30726 18.8072 3.05721 19.0573C2.80716 19.3073 2.66669 19.6465 2.66669 20.0001V28.0001C2.66669 28.3537 2.80716 28.6928 3.05721 28.9429C3.30726 29.1929 3.6464 29.3334 4.00002 29.3334H12C12.3536 29.3334 12.6928 29.1929 12.9428 28.9429C13.1929 28.6928 13.3334 28.3537 13.3334 28.0001V20.0001C13.3334 19.6465 13.1929 19.3073 12.9428 19.0573C12.6928 18.8072 12.3536 18.6667 12 18.6667ZM28 2.66675H20C19.6464 2.66675 19.3073 2.80722 19.0572 3.05727C18.8072 3.30732 18.6667 3.64646 18.6667 4.00008V12.0001C18.6667 12.3537 18.8072 12.6928 19.0572 12.9429C19.3073 13.1929 19.6464 13.3334 20 13.3334H28C28.3536 13.3334 28.6928 13.1929 28.9428 12.9429C29.1929 12.6928 29.3334 12.3537 29.3334 12.0001V4.00008C29.3334 3.64646 29.1929 3.30732 28.9428 3.05727C28.6928 2.80722 28.3536 2.66675 28 2.66675Z" fill="#E97053" stroke="#E97053" stroke-width="4" stroke-linejoin="round"/>
<path d="M18.6667 18.6667H29.3334M24 24.0001H29.3334M18.6667 29.3334H29.3334" stroke="#E97053" stroke-width="3" stroke-linecap="round" stroke-linejoin="round"/>
</g>
<defs>
<clipPath id="clip0_33_429">
<rect width="32" height="32" fill="white"/>
</clipPath>
</defs>
</svg>
