<svg width="16" height="20" viewBox="0 0 16 20" fill="none" xmlns="http://www.w3.org/2000/svg">
<path fill-rule="evenodd" clip-rule="evenodd" d="M8 5V0H6C3.17157 0 1.75736 0 0.87868 0.87868C0 1.75736 0 3.17157 0 6V14C0 16.8284 0 18.2426 0.87868 19.1213C1.75736 20 3.17157 20 6 20H10C12.8284 20 14.2426 20 15.1213 19.1213C16 18.2426 16 16.8284 16 14V8H11L10.9456 8.00001H10.9456H10.9456C10.5215 8.00009 10.1094 8.00017 9.76948 7.95447C9.38628 7.90295 8.949 7.77743 8.58579 7.41421C8.22257 7.051 8.09705 6.61372 8.04553 6.23052C7.99983 5.8906 7.99991 5.47848 7.99999 5.05441L8 5ZM10 5V0.00462076C10.4116 0.0148133 10.684 0.0474889 10.9369 0.152241C11.3045 0.304482 11.5935 0.593512 12.1716 1.17157L14.8284 3.82843C15.4065 4.40649 15.6955 4.69552 15.8478 5.06306C15.9525 5.31595 15.9852 5.58836 15.9954 6H11C10.5003 6 10.2262 5.99788 10.036 5.97231L10.0287 5.97131L10.0277 5.96402C10.0021 5.77383 10 5.49967 10 5ZM6.83766 10.1239L10.3341 11.8421C11.2219 12.2784 11.222 13.7216 10.3341 14.1579L6.83766 15.8761C5.96773 16.3037 5 15.5719 5 14.4867V11.5133C5 10.4281 5.96773 9.69635 6.83766 10.1239Z" fill="#25A189"/>
</svg>
