<svg width="26" height="26" viewBox="0 0 26 26" fill="none" xmlns="http://www.w3.org/2000/svg">
<path d="M14.2692 3.25H9.75002C7.70727 3.25 6.68589 3.25 6.05129 3.8846C5.41669 4.5192 5.41669 5.54058 5.41669 7.58333V18.4167C5.41669 20.4594 5.41669 21.4808 6.05129 22.1154C6.68589 22.75 7.70727 22.75 9.75002 22.75H16.25C18.2928 22.75 19.3141 22.75 19.9488 22.1154C20.5834 21.4808 20.5834 20.4594 20.5834 18.4167V9.56413C20.5834 9.12132 20.5834 8.89991 20.5009 8.70082C20.4184 8.50174 20.2619 8.34518 19.9488 8.03207L15.8013 3.8846C15.4882 3.57149 15.3316 3.41493 15.1325 3.33246C14.9334 3.25 14.712 3.25 14.2692 3.25Z" stroke="#25A189" stroke-width="2"/>
<path d="M15.0099 15.2543L11.5621 13.7767C10.7043 13.409 9.75 14.0383 9.75 14.9716V17.5286C9.75 18.4619 10.7043 19.0911 11.5621 18.7235L15.0099 17.2458C15.8854 16.8706 15.8854 15.6295 15.0099 15.2543Z" stroke="#25A189" stroke-width="2" stroke-linecap="round" stroke-linejoin="round"/>
<path d="M14.0833 3.25V7.58333C14.0833 8.60471 14.0833 9.1154 14.4006 9.4327C14.7179 9.75 15.2286 9.75 16.25 9.75H20.5833" stroke="#25A189" stroke-width="2"/>
</svg>
