<svg width="20" height="14" viewBox="0 0 20 14" fill="none" xmlns="http://www.w3.org/2000/svg">
<path fill-rule="evenodd" clip-rule="evenodd" d="M0.979238 5.27094C2.36454 3.19808 5.26851 0 9.99995 0C14.7314 0 17.6354 3.19808 19.0207 5.27094C19.4855 5.96655 19.718 6.31435 19.6968 6.95691C19.6757 7.59948 19.4088 7.94688 18.8752 8.64168C17.2861 10.7107 14.1129 14 9.99995 14C5.88699 14 2.71384 10.7107 1.12471 8.64168C0.591062 7.94688 0.324239 7.59948 0.303083 6.95691C0.281927 6.31435 0.514364 5.96655 0.979238 5.27094ZM9.99995 11C12.2091 11 13.9999 9.20914 13.9999 7C13.9999 4.79086 12.2091 3 9.99995 3C7.79081 3 5.99995 4.79086 5.99995 7C5.99995 9.20914 7.79081 11 9.99995 11Z" fill="#25A189"/>
</svg>
