<svg width="30" height="28" viewBox="0 0 30 28" fill="none" xmlns="http://www.w3.org/2000/svg">
<path d="M29 26H28.25C28.1837 26 28.1201 25.9737 28.0732 25.9268C28.0263 25.8799 28 25.8163 28 25.75V15.0944C28.0006 15.0546 27.9916 15.0153 27.974 14.9796C27.9563 14.944 27.9303 14.9131 27.8983 14.8895C27.8663 14.8659 27.8291 14.8503 27.7898 14.844C27.7505 14.8377 27.7103 14.8408 27.6725 14.8531C27.099 15.0334 26.5034 15.1339 25.9025 15.1519C25.8288 15.1519 25.7588 15.155 25.69 15.155C24.5342 15.1577 23.397 14.8642 22.3869 14.3025C22.3104 14.26 22.2244 14.2377 22.1369 14.2377C22.0494 14.2377 21.9633 14.26 21.8869 14.3025C20.877 14.8642 19.74 15.1577 18.5844 15.155C17.4353 15.1566 16.3054 14.8596 15.3056 14.2931C15.2285 14.2495 15.1414 14.2265 15.0528 14.2265C14.9642 14.2265 14.8771 14.2495 14.8 14.2931C13.7852 14.8618 12.6408 15.1588 11.4775 15.1556C10.3207 15.1564 9.18371 14.8547 8.17938 14.2806C8.10167 14.2364 8.01379 14.2132 7.92438 14.2132C7.83497 14.2132 7.7471 14.2364 7.66938 14.2806C6.66505 14.8547 5.5281 15.1564 4.37126 15.1556C4.30313 15.1556 4.23438 15.1556 4.16063 15.1525H4.15688C3.53488 15.1338 2.9187 15.0267 2.32688 14.8344C2.2894 14.8223 2.24959 14.8192 2.2107 14.8254C2.1718 14.8316 2.13492 14.8469 2.10306 14.87C2.07119 14.8932 2.04525 14.9235 2.02734 14.9586C2.00943 14.9937 2.00007 15.0325 2.00001 15.0719V25.75C2.00001 25.8163 1.97367 25.8799 1.92678 25.9268C1.8799 25.9737 1.81631 26 1.75001 26H1.03126C0.491257 26 0.0250072 26.415 0.00125721 26.955C-0.00482188 27.09 0.0165057 27.2247 0.0639528 27.3512C0.1114 27.4777 0.183983 27.5933 0.277321 27.6909C0.370659 27.7886 0.482816 27.8663 0.607025 27.9194C0.731233 27.9726 0.864917 28 1.00001 28H28.9688C29.5088 28 29.975 27.585 29.9988 27.045C30.0048 26.91 29.9835 26.7753 29.9361 26.6488C29.8886 26.5223 29.816 26.4067 29.7227 26.3091C29.6294 26.2114 29.5172 26.1337 29.393 26.0806C29.2688 26.0274 29.1351 26 29 26ZM13 21.75C13 21.8163 12.9737 21.8799 12.9268 21.9268C12.8799 21.9737 12.8163 22 12.75 22H7.25001C7.1837 22 7.12011 21.9737 7.07323 21.9268C7.02635 21.8799 7.00001 21.8163 7.00001 21.75V17.75C7.00001 17.5511 7.07903 17.3603 7.21968 17.2197C7.36033 17.079 7.5511 17 7.75001 17H12.25C12.4489 17 12.6397 17.079 12.7803 17.2197C12.921 17.3603 13 17.5511 13 17.75V21.75ZM22.75 26H18.25C18.1837 26 18.1201 25.9737 18.0732 25.9268C18.0263 25.8799 18 25.8163 18 25.75V17.75C18 17.5511 18.079 17.3603 18.2197 17.2197C18.3603 17.079 18.5511 17 18.75 17H22.25C22.4489 17 22.6397 17.079 22.7803 17.2197C22.921 17.3603 23 17.5511 23 17.75V25.75C23 25.8163 22.9737 25.8799 22.9268 25.9268C22.8799 25.9737 22.8163 26 22.75 26ZM29.7856 8.6425L27.1031 2.48688C26.4006 0.97625 24.7963 0 23.0156 0H6.98126C5.20063 0 3.59626 0.97625 2.89376 2.48688L0.211257 8.6425C-0.351243 9.85563 0.391882 11.1013 0.392507 11.1019L0.410007 11.13C0.440632 11.1788 0.495007 11.255 0.528132 11.3038C0.531257 11.3075 0.533757 11.3119 0.536882 11.3162L0.849382 11.6944C0.861066 11.7086 0.873589 11.7222 0.886882 11.735L1.19938 12.0369L1.22563 12.0594C1.40915 12.2167 1.60546 12.3584 1.81251 12.4831V12.4862C2.4927 12.8983 3.26765 13.128 4.06251 13.1531H4.21688C5.41955 13.1554 6.5784 12.7018 7.46001 11.8837L7.48063 11.8644C7.57271 11.7776 7.69444 11.7293 7.82094 11.7293C7.94745 11.7293 8.06918 11.7776 8.16126 11.8644L8.18188 11.8837C9.07288 12.7004 10.2376 13.1534 11.4463 13.1534C12.6549 13.1534 13.8196 12.7004 14.7106 11.8837C14.8031 11.7982 14.9244 11.7506 15.0503 11.7506C15.1763 11.7506 15.2976 11.7982 15.39 11.8837C16.2784 12.6978 17.4388 13.1506 18.6438 13.1532C19.8487 13.1559 21.0112 12.7083 21.9031 11.8981C21.9942 11.8138 22.1137 11.7669 22.2378 11.7669C22.3619 11.7669 22.4815 11.8138 22.5725 11.8981C23.4654 12.7132 24.6329 13.1614 25.8419 13.1531H25.9975C26.7724 13.1242 27.5264 12.8937 28.185 12.4844C28.2444 12.4487 28.3013 12.4113 28.3588 12.3737C28.803 12.0743 29.1896 11.6972 29.5 11.2606L29.6088 11.0962C29.6196 11.0796 29.6296 11.0621 29.6388 11.0437C29.7425 10.8325 30.2988 9.74625 29.7856 8.6425Z" fill="#E97053"/>
</svg>
