<svg width="20" height="20" viewBox="0 0 20 20" fill="none" xmlns="http://www.w3.org/2000/svg">
<path d="M9.67095 0C4.32926 0 0 4.32926 0 9.67095C0 15.0126 4.32926 19.3419 9.67095 19.3419C15.0126 19.3419 19.3419 15.0126 19.3419 9.67095C19.3419 4.32926 15.0126 0 9.67095 0ZM8.7643 5.74213C8.7643 5.24347 9.17229 4.83548 9.67095 4.83548C10.1696 4.83548 10.5776 5.24158 10.5776 5.74213V10.5776C10.5776 11.0782 10.1715 11.4843 9.67095 11.4843C9.1704 11.4843 8.7643 11.08 8.7643 10.5776V5.74213ZM9.67095 15.1109C9.01514 15.1109 8.48324 14.579 8.48324 13.9231C8.48324 13.2673 9.01476 12.7354 9.67095 12.7354C10.3271 12.7354 10.8587 13.2673 10.8587 13.9231C10.8572 14.5782 10.3283 15.1109 9.67095 15.1109Z" fill="#25A189"/>
</svg>
