<svg width="36" height="36" viewBox="0 0 36 36" fill="none" xmlns="http://www.w3.org/2000/svg">
<path d="M21.095 1.60369e-06C24.3128 -0.00153426 27.4338 1.10014 29.9375 3.1213C32.4413 5.14246 34.1764 7.96091 34.8536 11.1066C35.5307 14.2523 35.109 17.535 33.6586 20.4074C32.2082 23.2797 29.8169 25.568 26.8835 26.8905C25.9459 28.9635 24.5195 30.778 22.7266 32.1786C20.9336 33.5792 18.8277 34.5241 16.5895 34.9321C14.3512 35.3401 12.0474 35.1991 9.87562 34.5212C7.70382 33.8433 5.72885 32.6488 4.12008 31.04C2.51132 29.4313 1.31677 27.4563 0.638897 25.2845C-0.0389801 23.1127 -0.17996 20.8089 0.228048 18.5706C0.636056 16.3324 1.58088 14.2265 2.98148 12.4336C4.38208 10.6407 6.19666 9.21421 8.2696 8.27658C9.38465 5.80941 11.1877 3.71629 13.4626 2.24825C15.7375 0.780207 18.3876 -0.000416844 21.095 1.60369e-06ZM15.82 12.3085H12.3033V14.0668C11.1605 14.0641 10.0616 14.5064 9.23948 15.3C8.41733 16.0937 7.93655 17.1763 7.89906 18.3185C7.86156 19.4606 8.27028 20.5724 9.03861 21.4183C9.80693 22.2642 10.8744 22.7776 12.0149 22.8498L12.3033 22.8586H15.82L15.9782 22.8727C16.1809 22.9094 16.3643 23.0161 16.4964 23.1742C16.6284 23.3323 16.7008 23.5318 16.7008 23.7378C16.7008 23.9438 16.6284 24.1433 16.4964 24.3014C16.3643 24.4595 16.1809 24.5662 15.9782 24.6029L15.82 24.617H8.78656V28.1337H12.3033V29.892H15.82V28.1337C16.9627 28.1365 18.0616 27.6941 18.8838 26.9005C19.7059 26.1068 20.1867 25.0242 20.2242 23.8821C20.2617 22.7399 19.853 21.6281 19.0846 20.7822C18.3163 19.9363 17.2488 19.4229 16.1083 19.3507L15.82 19.3419H12.3033L12.145 19.3278C11.9423 19.2911 11.7589 19.1844 11.6269 19.0263C11.4948 18.8682 11.4225 18.6687 11.4225 18.4627C11.4225 18.2567 11.4948 18.0573 11.6269 17.8992C11.7589 17.741 11.9423 17.6343 12.145 17.5976L12.3033 17.5835H19.3367V14.0668H15.82V12.3085ZM21.095 3.51671C19.6052 3.51497 18.1319 3.82959 16.7727 4.43978C15.4135 5.04996 14.1994 5.9418 13.2106 7.05628C15.198 6.93563 17.1884 7.23826 19.0501 7.94415C20.9118 8.65005 22.6025 9.74312 24.0103 11.1511C25.4181 12.5591 26.511 14.2499 27.2167 16.1117C27.9223 17.9735 28.2247 19.9639 28.1038 21.9513C29.7026 20.5299 30.8314 18.6561 31.3407 16.5783C31.8499 14.5006 31.7155 12.3171 30.9553 10.3175C30.195 8.31795 28.8449 6.59671 27.0839 5.38212C25.3229 4.16752 23.2343 3.51696 21.095 3.51671Z" fill="#25A189"/>
</svg>
