<svg width="14" height="16" viewBox="0 0 14 16" fill="none" xmlns="http://www.w3.org/2000/svg">
<path d="M13.3608 11.6091C12.7802 10.9273 11.1298 9.65 10.0482 9.65C9.79763 9.65 9.5789 9.71364 9.39995 9.84546C8.87104 10.2318 8.44951 10.5318 8.24669 10.5318C8.13534 10.5318 8.01604 10.4182 7.75358 10.1591L7.70983 10.1136C6.98209 9.39091 6.82699 9.20455 6.54465 8.86818L6.47306 8.78182C6.42137 8.72273 6.37762 8.66818 6.33388 8.61818C6.08732 8.32727 5.90837 8.11818 5.27606 7.3L5.24822 7.26364C4.94599 6.87273 4.74715 6.61818 4.73522 6.43182C4.72329 6.25 4.86248 5.95455 5.21641 5.40455C5.6459 4.74091 5.66181 3.92273 5.26811 2.97273C4.95395 2.22273 4.44094 1.50455 3.9876 0.872728L3.94783 0.818182C3.55811 0.272727 3.10476 0 2.59971 0C2.03899 0 1.57371 0.345454 1.32715 0.527273C1.30727 0.540909 1.28738 0.559091 1.2675 0.572727C0.714731 0.972727 0.313079 1.52273 0.161963 2.08182C-0.0647118 2.92273 -0.215828 4.01364 0.869824 6.28182C1.80834 8.24546 2.65936 9.56364 4.01146 11.15C5.28402 12.6409 5.84871 13.1227 7.11332 14.1682C8.52109 15.3318 9.87318 16 10.8197 16C11.6985 16 12.3905 16 13.3767 14.6409C14.4107 13.2136 13.9812 12.3409 13.3608 11.6091Z" fill="#25A189"/>
</svg>
