<svg width="15" height="21" viewBox="0 0 15 21" fill="none" xmlns="http://www.w3.org/2000/svg">
<path d="M12.675 7H2.32503C1.87503 7 1.50003 7.4375 1.57503 7.9625L2.77503 19.425C2.85003 20.3 3.52503 20.9125 4.27503 20.9125H10.65C11.4 20.9125 12.075 20.3 12.15 19.425L13.35 7.9625C13.425 7.4375 13.125 7 12.675 7Z" fill="#FF0000"/>
<path d="M13.5 1.75H9.75C9.75 0.7875 9.075 0 8.25 0H6.75C5.925 0 5.25 0.7875 5.25 1.75H1.5C0.675 1.75 0 2.5375 0 3.5V4.375C0 4.9 0.3 5.25 0.75 5.25H14.25C14.7 5.25 15 4.9 15 4.375V3.5C15 2.5375 14.325 1.75 13.5 1.75Z" fill="#FF0000"/>
</svg>
