<svg width="12" height="13" viewBox="0 0 12 13" fill="none" xmlns="http://www.w3.org/2000/svg">
<path d="M9.70492 0.741731C10.1144 0.33211 10.7784 0.332038 11.1879 0.741569L11.6498 1.20343C12.0592 1.61283 12.0592 2.27659 11.6499 2.68608C11.2405 3.0957 10.5765 3.09577 10.1669 2.68624L9.70509 2.22438C9.29568 1.81498 9.29561 1.15122 9.70492 0.741731ZM3.32364 7.69227C3.32364 8.45171 3.93929 9.06736 4.69873 9.06736C5.06343 9.06736 5.41319 8.92249 5.67107 8.66461L9.01959 5.31609C9.55659 4.77908 9.55659 3.90842 9.01959 3.37141C8.48258 2.83441 7.61192 2.83441 7.07491 3.37141L3.7264 6.71993C3.46852 6.97781 3.32364 7.32757 3.32364 7.69227Z" fill="white"/>
<path d="M10.4541 7.95566C10.4541 9.64365 9.08572 11.012 7.39774 11.012H3.42606C3.40921 11.012 3.3917 11.0185 3.37485 11.0185C3.35346 11.0185 3.33207 11.0127 3.31003 11.012C2.24353 11.012 1.37897 10.1475 1.37897 9.08097V5.07531C1.37897 3.34201 2.78408 1.93689 4.51738 1.93689H5.54886C5.72078 1.93689 5.88565 1.8686 6.00722 1.74703C6.41558 1.33868 6.12636 0.640446 5.54886 0.640446H1.37897C0.663977 0.640446 0.0825195 1.22125 0.0825195 1.93689V11.012C0.0825195 11.7277 0.663977 12.3085 1.37897 12.3085H10.4541C10.7979 12.3085 11.1277 12.1719 11.3708 11.9288C11.614 11.6856 11.7506 11.3559 11.7506 11.012V6.95818C11.7506 6.38067 11.0523 6.09146 10.644 6.49981C10.5224 6.62138 10.4541 6.78626 10.4541 6.95818V7.95566Z" fill="white"/>
</svg>
