<svg width="13" height="13" viewBox="0 0 13 13" fill="none" xmlns="http://www.w3.org/2000/svg">
<path d="M2.62637 6.92355H8.46208C8.66611 6.92355 8.86178 6.8425 9.00604 6.69823C9.15031 6.55396 9.23136 6.35829 9.23136 6.15427C9.23136 5.95024 9.15031 5.75457 9.00604 5.6103C8.86178 5.46603 8.66611 5.38499 8.46208 5.38499H2.62637L3.62103 4.39033C3.76462 4.24594 3.84509 4.0505 3.84481 3.84687C3.84453 3.64323 3.76351 3.44802 3.61951 3.30403C3.47552 3.16004 3.28031 3.07902 3.07668 3.07874C2.87304 3.07845 2.6776 3.15893 2.53321 3.30252L0.225372 5.61036C0.153923 5.68177 0.0972438 5.76657 0.0585737 5.85989C0.0199036 5.95322 0 6.05325 0 6.15427C0 6.25529 0.0199036 6.35532 0.0585737 6.44864C0.0972438 6.54197 0.153923 6.62676 0.225372 6.69817L2.53321 9.00601C2.60457 9.07777 2.68938 9.13473 2.78279 9.17366C2.8762 9.21257 2.97637 9.23268 3.07756 9.23282C3.17876 9.23296 3.27898 9.21314 3.3725 9.17448C3.46602 9.13582 3.55099 9.07908 3.62254 9.00753C3.6941 8.93597 3.75083 8.851 3.78949 8.75749C3.82815 8.66397 3.84798 8.56374 3.84784 8.46255C3.84769 8.36136 3.82759 8.26119 3.78867 8.16778C3.74975 8.07437 3.69278 7.98955 3.62103 7.9182L2.62637 6.92355Z" fill="white"/>
<path d="M11.5392 1.23664e-07H5.385C5.28396 -5.71807e-05 5.1839 0.0198017 5.09054 0.0584414C4.99718 0.097081 4.91236 0.153744 4.84091 0.225189C4.76947 0.296635 4.7128 0.381463 4.67416 0.474822C4.63552 0.568181 4.61567 0.668241 4.61572 0.76928V2.30784C4.61572 2.51187 4.69677 2.70754 4.84104 2.8518C4.98531 2.99607 5.18098 3.07712 5.385 3.07712C5.58903 3.07712 5.7847 2.99607 5.92897 2.8518C6.07323 2.70754 6.15428 2.51187 6.15428 2.30784V1.53856H10.77V10.7699H6.15428V10.0006C6.15428 9.79662 6.07323 9.60095 5.92897 9.45668C5.7847 9.31241 5.58903 9.23136 5.385 9.23136C5.18098 9.23136 4.98531 9.31241 4.84104 9.45668C4.69677 9.60095 4.61572 9.79662 4.61572 10.0006V11.5392C4.61567 11.6402 4.63552 11.7403 4.67416 11.8337C4.7128 11.927 4.76947 12.0118 4.84091 12.0833C4.91236 12.1547 4.99718 12.2114 5.09054 12.25C5.1839 12.2887 5.28396 12.3085 5.385 12.3085H11.5392C11.6403 12.3085 11.7403 12.2887 11.8337 12.25C11.9271 12.2114 12.0119 12.1547 12.0833 12.0833C12.1548 12.0118 12.2114 11.927 12.2501 11.8337C12.2887 11.7403 12.3086 11.6402 12.3085 11.5392V0.76928C12.3086 0.668241 12.2887 0.568181 12.2501 0.474822C12.2114 0.381463 12.1548 0.296635 12.0833 0.225189C12.0119 0.153744 11.9271 0.097081 11.8337 0.0584414C11.7403 0.0198017 11.6403 -5.71807e-05 11.5392 1.23664e-07Z" fill="white"/>
</svg>
