<svg width="14" height="18" viewBox="0 0 14 18" fill="none" xmlns="http://www.w3.org/2000/svg">
<path fill-rule="evenodd" clip-rule="evenodd" d="M6.99801 18C6.97018 18 6.93042 18 6.90258 17.9875C6.71968 17.9003 2.32207 15.9386 0.027833 10.6396C0.0119284 10.6105 0 10.5648 0 10.5357V2.7638C0 2.69314 0.027833 2.63496 0.0675944 2.57677C0.111332 2.53106 0.182903 2.50196 0.250497 2.50196C0.294235 2.50196 4.74752 2.64743 6.80318 0.0872778C6.90258 -0.0290926 7.08549 -0.0290926 7.18091 0.0872778C9.25249 2.66405 13.7058 2.50196 13.7495 2.50196C13.8171 2.50196 13.8728 2.53106 13.9324 2.57677C13.9722 2.61833 14 2.69314 14 2.7638V10.5357C14 10.5814 13.9881 10.6105 13.9722 10.6396C11.662 15.9386 7.26441 17.9003 7.08549 17.9875C7.06958 18 7.02982 18 6.99801 18ZM6.99801 16.2877H6.99006C6.96223 16.2877 6.93439 16.2794 6.91054 16.2711C6.89861 16.2669 6.88668 16.2628 6.87475 16.2586C6.18688 15.8347 5.53081 15.3359 5.20875 15.0741C3.59841 13.7275 2.3499 12.1191 1.49901 10.2863C1.4831 10.2572 1.4672 10.2157 1.4672 10.1699V4.25999C1.4672 4.12699 1.5666 4.02309 1.67793 4.01062C2.0835 3.9649 2.49304 3.89009 2.91054 3.80282C4.46521 3.49527 5.79722 2.94251 6.84692 2.16532C6.89066 2.13623 6.94235 2.1196 6.99404 2.1196H6.99801C7.07753 2.1196 7.14911 2.15701 7.19682 2.21519C8.24652 2.96329 9.53877 3.50358 11.0457 3.80282C11.4513 3.89009 11.8728 3.9649 12.2942 4.01062C12.4175 4.02309 12.501 4.13946 12.501 4.25999V8.45347C12.5209 8.49088 12.5288 8.53244 12.5288 8.574C12.5288 8.61972 12.5209 8.66128 12.501 8.69868V10.1699C12.501 10.2157 12.4891 10.2447 12.4732 10.2863C11.5944 12.1482 10.3459 13.7566 8.76342 15.0741C8.19881 15.5396 7.67396 15.9178 7.19284 16.2046C7.16501 16.2378 7.12525 16.2628 7.08549 16.2752C7.06561 16.2877 7.0338 16.2877 6.99801 16.2877ZM6.74751 15.5728V12.4018C4.93837 12.2688 3.4831 10.7435 3.36779 8.83999H1.97217V10.1118C2.7992 11.8532 3.98807 13.3909 5.51491 14.6627C5.76938 14.8663 6.22266 15.232 6.74751 15.5728ZM1.97217 8.31217H3.36779C3.49901 6.43362 4.9503 4.92496 6.74751 4.79612V2.84692C5.71372 3.5202 4.45726 4.01893 3.02187 4.30155C2.67197 4.37636 2.32207 4.43454 1.97217 4.49273V8.31217ZM7.25248 2.84692V4.79612C9.06163 4.92496 10.5129 6.43362 10.6441 8.31217H12.0398V4.49273C11.6779 4.44701 11.3121 4.37636 10.9781 4.30155C9.5507 4.01893 8.30616 3.53267 7.25248 2.84692ZM12.0398 8.83999H10.6481C10.5288 10.7435 9.07356 12.2688 7.25248 12.4018V15.5687C7.63419 15.3193 8.04771 15.0118 8.48509 14.6627C9.99602 13.4034 11.2008 11.8698 12.0398 10.1118V8.83999ZM6.91849 11.8947C6.94632 11.8864 6.97018 11.8822 6.99801 11.8822C7.02982 11.8822 7.05368 11.8864 7.08151 11.8947C8.77137 11.8532 10.1272 10.4151 10.163 8.66128C10.1551 8.63219 10.1511 8.60725 10.1511 8.574C10.1511 8.54491 10.1551 8.51997 10.163 8.49088C10.1113 6.72454 8.71968 5.29901 6.99801 5.29901C5.29622 5.29901 3.9006 6.72454 3.85288 8.49088C3.86084 8.51997 3.86481 8.54491 3.86481 8.574C3.86481 8.60309 3.85686 8.63219 3.84891 8.65712C3.88469 10.411 5.24056 11.8532 6.91849 11.8947ZM5.47515 10.4484C5.41948 10.4484 5.34791 10.4193 5.30417 10.3736C5.20875 10.2738 5.20875 10.1118 5.30417 10.0078L6.65606 8.59894L5.30417 7.18587C5.20875 7.08197 5.20875 6.91988 5.30417 6.82013C5.40358 6.71623 5.55865 6.71623 5.65408 6.82013L7.00596 8.2332L8.35785 6.82013C8.45726 6.71623 8.60835 6.71623 8.70775 6.82013C8.80716 6.91988 8.80716 7.08197 8.70775 7.18587L7.35586 8.59894L8.70775 10.0078C8.80716 10.1118 8.80716 10.2738 8.70775 10.3736C8.65209 10.4193 8.59642 10.4484 8.52485 10.4484C8.46918 10.4484 8.40159 10.4193 8.35785 10.3736L7.00596 8.96467L5.65408 10.3736C5.59841 10.4193 5.54274 10.4484 5.47515 10.4484Z" fill="#25A189"/>
</svg>
