<svg width="15" height="19" viewBox="0 0 15 19" fill="none" xmlns="http://www.w3.org/2000/svg">
<path d="M11.4161 16.0296L1.36888 9.09795L11.4161 2.16632L12.3217 3.89898L4.78536 9.09795L12.3217 14.2969L11.4161 16.0296Z" fill="#25A189"/>
<path d="M11.8689 7.07618C13.5683 7.07618 14.946 5.49212 14.946 3.53809C14.946 1.58406 13.5683 0 11.8689 0C10.1694 0 8.79177 1.58406 8.79177 3.53809C8.79177 5.49212 10.1694 7.07618 11.8689 7.07618Z" fill="#25A189"/>
<path d="M3.07712 12.636C4.77657 12.636 6.15424 11.052 6.15424 9.09795C6.15424 7.14391 4.77657 5.55986 3.07712 5.55986C1.37767 5.55986 0 7.14391 0 9.09795C0 11.052 1.37767 12.636 3.07712 12.636Z" fill="#25A189"/>
<path d="M11.8689 18.1959C13.5683 18.1959 14.946 16.6118 14.946 14.6578C14.946 12.7038 13.5683 11.1197 11.8689 11.1197C10.1694 11.1197 8.79177 12.7038 8.79177 14.6578C8.79177 16.6118 10.1694 18.1959 11.8689 18.1959Z" fill="#25A189"/>
</svg>
