<svg width="343" height="158" viewBox="0 0 343 158" fill="none" xmlns="http://www.w3.org/2000/svg">
<rect width="343" height="158" rx="40" fill="#E97053"/>
<mask id="mask0_102_1481" style="mask-type:alpha" maskUnits="userSpaceOnUse" x="0" y="0" width="343" height="158">
<rect width="343" height="158" rx="40" fill="#0C8BFC"/>
</mask>
<g mask="url(#mask0_102_1481)">
<path d="M167.71 125.958C204.536 185.96 185.448 264.271 125.074 300.87C64.7013 337.47 -14.0943 318.499 -50.9204 258.497C-87.7465 198.495 -68.6579 120.184 -8.28468 83.5845C52.0885 46.9849 130.884 65.9562 167.71 125.958Z" fill="#E9C469"/>
<path opacity="0.7" d="M-86.883 -23.8515C-81.3445 -88.9746 -23.7352 -137.305 41.7909 -131.801C107.317 -126.296 155.947 -69.0413 150.408 -3.91821C144.87 61.2049 87.2603 109.535 21.7342 104.031C-43.7919 98.5265 -92.4214 41.2716 -86.883 -23.8515Z" fill="#25A189"/>
</g>
</svg>
